# Exported from ProBuilder
# http://www.procore3d.com/probuilder
# 8/7/2017 1:13:14 AM

mtllib ./RailwaySignRectangle.mtl
o RailwaySignRectangle

g RailwaySignRectangle
v -0.7467957 1.969563 0.2019062
v -0.7467957 1.969563 -0.1980953
v -0.7467957 5.369562 0.2019062
v -0.7467957 5.369562 -0.1980953
v 0.7532043 1.969563 -0.1980953
v 0.7532043 1.969563 0.2019062
v 0.7532043 5.369562 -0.1980953
v 0.7532043 5.369562 0.2019062
v 0.4532051 5.669562 -0.1980953
v -0.4467964 5.369562 -0.4980946
v 0.4532051 5.369562 -0.4980946
v -0.4467964 5.669562 -0.1980953
v 0.7532043 5.369562 -0.1980953
v 0.7532043 1.969563 -0.1980953
v 0.4532051 5.369562 -0.4980946
v 0.4532051 1.969563 -0.4980946
v 0.7532043 5.369562 -0.1980953
v 0.4532051 1.669562 -0.1980953
v -0.4467964 1.669562 -0.1980953
v 0.4532051 1.969563 -0.4980946
v -0.4467964 1.969563 -0.4980946
v 0.4532051 1.669562 -0.1980953
v -0.7467957 1.969563 -0.1980953
v -0.4467964 1.669562 -0.1980953
v -0.4467964 1.969563 -0.4980946
v -0.7467957 5.369562 -0.1980953
v -0.4467964 5.369562 -0.4980946
v -0.4467964 5.369562 -0.4980946
v 0.4532051 5.369562 -0.4980946
v -0.7467957 5.369562 -0.1980953
v -0.4467964 5.669562 0.2019062
v 0.4532051 5.369562 0.5019054
v -0.4467964 5.369562 0.5019054
v 0.4532051 5.669562 0.2019062
v 0.7532043 5.369562 0.2019062
v 0.4532051 1.969563 0.5019054
v 0.4532051 5.369562 0.5019054
v 0.7532043 1.969563 0.2019062
v 0.4532051 5.669562 0.2019062
v 0.4532051 1.969563 0.5019054
v -0.4467964 1.969563 0.5019054
v -0.7467957 1.969563 0.2019062
v -0.7467957 5.369562 0.2019062
v 0.7532043 1.969563 0.2019062
v 0.4532051 1.669562 0.2019062
v 0.4532051 1.969563 0.5019054
v -0.4467964 1.969563 0.5019054
v -0.4467964 1.669562 0.2019062
v -0.7467957 1.969563 0.2019062
v 0.4532051 1.669562 -0.1980953
v 0.7532043 1.969563 0.2019062
v 0.7532043 1.969563 -0.1980953
v 0.4532051 1.669562 0.2019062
v -0.4467964 1.669562 0.2019062
v -0.7467957 1.969563 -0.1980953
v -0.7467957 1.969563 0.2019062
v -0.4467964 1.669562 -0.1980953
v 0.4532051 1.669562 -0.1980953
v -0.4467964 1.669562 -0.1980953
v 0.4532051 1.669562 0.2019062
v -0.4467964 1.669562 0.2019062
v 0.4532051 5.669562 0.2019062
v 0.7532043 5.369562 -0.1980953
v 0.7532043 5.369562 0.2019062
v 0.4532051 5.669562 -0.1980953
v 0.4532051 5.669562 0.2019062
v -0.4467964 5.669562 0.2019062
v 0.4532051 5.669562 -0.1980953
v -0.4467964 5.669562 -0.1980953
v -0.4467964 5.669562 -0.1980953
v -0.7467957 5.369562 0.2019062
v -0.7467957 5.369562 -0.1980953
v -0.4467964 5.669562 0.2019062
v -0.2999992 -3.693562 0
v -0.2999992 1.806437 0
v -0.2121315 -3.693562 0.2121315
v -0.2121315 1.806437 0.2121315
v -0.2121315 -3.693562 0.2121315
v -0.2121315 1.806437 0.2121315
v 0 -3.693562 0.2999992
v 0 1.806437 0.2999992
v 0.2121315 -3.693562 0.2121315
v 0.2121315 1.806437 0.2121315
v 0.2121315 -3.693562 0.2121315
v 0.2121315 1.806437 0.2121315
v 0.2999992 -3.693562 0
v 0.2999992 1.806437 0
v 0.2121315 -3.693562 -0.2121315
v 0.2121315 1.806437 -0.2121315
v 0.2121315 -3.693562 -0.2121315
v 0.2121315 1.806437 -0.2121315
v 0 -3.693562 -0.2999992
v 0 1.806437 -0.2999992
v -0.2121315 -3.693562 -0.2121315
v -0.2121315 1.806437 -0.2121315
v -0.2121315 -3.693562 -0.2121315
v -0.2121315 1.806437 -0.2121315
v -2 -5.569562 0
v -2 -3.969562 0
v -1.414213 -5.569562 1.414213
v -1.414213 -3.969562 1.414213
v -1.414213 -5.569562 1.414213
v -1.414213 -3.969562 1.414213
v 0 -5.569562 2
v 0 -3.969562 2
v 0 -5.569562 2
v 0 -3.969562 2
v 1.414213 -5.569562 1.414213
v 1.414213 -3.969562 1.414213
v 1.414213 -5.569562 1.414213
v 1.414213 -3.969562 1.414213
v 2 -5.569562 0
v 2 -3.969562 0
v 2 -5.569562 0
v 2 -3.969562 0
v 1.414213 -5.569562 -1.414213
v 1.414213 -3.969562 -1.414213
v 1.414213 -5.569562 -1.414213
v 1.414213 -3.969562 -1.414213
v 0 -5.569562 -2
v 1.414213 -3.969562 -1.414213
v 0 -3.969562 -2
v 0 -5.569562 -2
v -1.414213 -5.569562 -1.414213
v -1.414213 -3.969562 -1.414213
v -1.414213 -5.569562 -1.414213
v -1.414213 -3.969562 -1.414213
v -2 -5.569562 0
v -2 -3.969562 0
v 1.202082 -3.669563 1.202082
v 2 -3.969562 0
v 1.414213 -3.969562 1.414213
v 1.700001 -3.669563 0
v 1.700001 -3.669563 0
v 1.414213 -3.969562 -1.414213
v 2 -3.969562 0
v 1.202082 -3.669563 -1.202082
v 1.202082 -3.669563 1.202082
v 0 -3.669563 0
v 1.700001 -3.669563 0
v 1.202082 -3.669563 -1.202082
v 0 -3.969562 -2
v 1.414213 -3.969562 -1.414213
v 0 -3.669563 -1.700001
v 0 -3.669563 1.700001
v 0 -3.969562 2
v 0 -3.669563 1.700001
v 0 -3.669563 -1.700001
v -1.414213 -3.969562 -1.414213
v 0 -3.969562 -2
v -1.202082 -3.669563 -1.202082
v -1.202082 -3.669563 -1.202082
v -1.202082 -3.669563 1.202082
v -1.7 -3.669563 0
v -1.202082 -3.669563 1.202082
v 0 -3.969562 2
v -1.414213 -3.969562 1.414213
v 0 -3.669563 1.700001
v -2 -3.969562 0
v -1.414213 -3.969562 -1.414213
v -1.7 -3.669563 0
v -2 -3.969562 0
v 0 -5.669562 1.9
v -1.414213 -5.569562 1.414213
v 0 -5.569562 2
v -1.343503 -5.669562 1.343502
v -2 -5.569562 0
v -1.9 -5.669562 0
v 0 -5.669562 0
v 1.343502 -5.669562 1.343502
v 0 -5.569562 2
v 1.414213 -5.569562 1.414213
v 0 -5.669562 1.9
v 1.343502 -5.669562 1.343502
v -1.414213 -5.569562 -1.414213
v -1.343503 -5.669562 -1.343504
v 1.9 -5.669562 0
v 2 -5.569562 0
v 1.9 -5.669562 0
v 1.343502 -5.669562 -1.343502
v 0 -5.669562 -1.9
v 0 -5.569562 -2
v 2 -5.569562 0
v 1.414213 -5.569562 -1.414213
v 0 -5.669562 -1.9
v 1.414213 -5.569562 -1.414213
v 0 -5.569562 -2

vn -1 0 0
vn -1 0 0
vn -1 0 0
vn -1 0 0
vn 1 0 0
vn 1 0 0
vn 1 0 0
vn 1 0 0
vn 0.1005036 0.7035254 -0.7035276
vn -0.1409675 0.08000866 -0.9867759
vn 0.3627496 0.06130983 -0.9298676
vn -0.1740774 0.6963095 -0.6963118
vn 0.7059475 0.05723885 -0.7059475
vn 0.7067914 -0.02986435 -0.7067914
vn 0.3627496 0.06130983 -0.9298676
vn 0.1409675 -0.08000866 -0.986776
vn 0.7059475 0.05723885 -0.7059475
vn 0.1740774 -0.6963095 -0.6963118
vn -0.1005036 -0.7035254 -0.7035276
vn 0.1409675 -0.08000866 -0.986776
vn -0.3627496 -0.06130983 -0.9298676
vn 0.1740774 -0.6963095 -0.6963118
vn -0.7059475 -0.05723885 -0.7059475
vn -0.1005036 -0.7035254 -0.7035276
vn -0.3627496 -0.06130983 -0.9298676
vn -0.7067914 0.02986435 -0.7067914
vn -0.1409675 0.08000866 -0.9867759
vn -0.1409675 0.08000866 -0.9867759
vn 0.3627496 0.06130983 -0.9298676
vn -0.7067914 0.02986435 -0.7067914
vn -0.1005036 0.7035254 0.7035276
vn 0.1409675 0.08000867 0.986776
vn -0.3627496 0.06130984 0.9298676
vn 0.1740774 0.6963095 0.6963118
vn 0.7067914 0.02986435 0.7067914
vn 0.3627496 -0.06130984 0.9298676
vn 0.1409675 0.08000867 0.986776
vn 0.7059475 -0.05723885 0.7059475
vn 0.1740774 0.6963095 0.6963118
vn 0.3627496 -0.06130984 0.9298676
vn -0.1409675 -0.08000867 0.9867759
vn -0.7067914 -0.02986435 0.7067914
vn -0.7059475 0.05723885 0.7059475
vn 0.7059475 -0.05723885 0.7059475
vn 0.1005036 -0.7035253 0.7035276
vn 0.3627496 -0.06130984 0.9298676
vn -0.1409675 -0.08000867 0.9867759
vn -0.1740774 -0.6963095 0.6963118
vn -0.7067914 -0.02986435 0.7067914
vn 0.3713909 -0.9284766 0
vn 0.7071079 -0.7071056 0
vn 0.7071079 -0.7071056 0
vn 0.1414213 -0.9899495 0
vn -0.3713909 -0.9284766 0
vn -0.7071079 -0.7071056 0
vn -0.7071079 -0.7071056 0
vn -0.1414213 -0.9899495 0
vn 0.3713909 -0.9284766 0
vn -0.1414213 -0.9899495 0
vn 0.1414213 -0.9899495 0
vn -0.3713909 -0.9284766 0
vn 0.3713909 0.9284766 0
vn 0.7071079 0.7071056 0
vn 0.7071079 0.7071056 0
vn 0.1414213 0.9899495 0
vn 0.3713909 0.9284766 0
vn -0.1414213 0.9899495 0
vn 0.1414213 0.9899495 0
vn -0.3713909 0.9284766 0
vn -0.3713909 0.9284766 0
vn -0.7071079 0.7071056 0
vn -0.7071079 0.7071056 0
vn -0.1414213 0.9899495 0
vn -0.9238796 0 0
vn -0.9238796 0 0
vn -0.6532815 0 0.6532815
vn -0.6532815 0 0.6532815
vn -0.6532815 0 0.6532815
vn -0.6532815 0 0.6532815
vn 0 0 0.9238796
vn 0 0 0.9238796
vn 0.6532815 0 0.6532815
vn 0.6532815 0 0.6532815
vn 0.6532815 0 0.6532815
vn 0.6532815 0 0.6532815
vn 0.9238796 0 0
vn 0.9238796 0 0
vn 0.6532815 0 -0.6532815
vn 0.6532815 0 -0.6532815
vn 0.6532815 0 -0.6532815
vn 0.6532815 0 -0.6532815
vn 0 0 -0.9238796
vn 0 0 -0.9238796
vn -0.6532815 0 -0.6532815
vn -0.6532815 0 -0.6532815
vn -0.6532815 0 -0.6532815
vn -0.6532815 0 -0.6532815
vn -0.9238794 0 0
vn -0.9238794 0 0
vn -0.6532816 0 0.6532816
vn -0.6532816 0 0.6532816
vn -0.6532816 0 0.6532816
vn -0.6532816 0 0.6532816
vn 0 0 0.9238794
vn 0 0 0.9238794
vn 0 0 0.9238794
vn 0 0 0.9238794
vn 0.6532816 0 0.6532816
vn 0.6532816 0 0.6532816
vn 0.6532816 0 0.6532816
vn 0.6532816 0 0.6532816
vn 0.9238794 0 0
vn 0.9238794 0 0
vn 0.9238794 0 0
vn 0.9238794 0 0
vn 0.6532816 0 -0.6532816
vn 0.6532816 0 -0.6532816
vn 0.6532816 0 -0.6532816
vn 0.6532816 0 -0.6532816
vn 0 0 -0.9238794
vn 0.6532816 0 -0.6532816
vn 0 0 -0.9238794
vn 0 0 -0.9238794
vn -0.6532816 0 -0.6532816
vn -0.6532816 0 -0.6532816
vn -0.6532816 0 -0.6532816
vn -0.6532816 0 -0.6532816
vn -0.9238794 0 0
vn -0.9238794 0 0
vn 0.1743226 0.9763403 0.1279503
vn 0.7044248 0.7044237 0.08702291
vn 0.4365692 0.7044237 0.559638
vn 0.2137392 0.9763404 -0.03279027
vn 0.2137392 0.9763404 -0.03279027
vn 0.5596379 0.7044237 -0.4365692
vn 0.7044248 0.7044237 0.08702291
vn 0.1279503 0.9763403 -0.1743226
vn 0.1743226 0.9763403 0.1279503
vn 0 1 0
vn 0.2137392 0.9763404 -0.03279027
vn 0.1279503 0.9763403 -0.1743226
vn 0.08702291 0.7044237 -0.7044248
vn 0.5596379 0.7044237 -0.4365692
vn -0.03279027 0.9763404 -0.2137392
vn 0.03279027 0.9763404 0.2137392
vn -0.08702292 0.7044237 0.7044248
vn 0.03279027 0.9763404 0.2137392
vn -0.03279027 0.9763404 -0.2137392
vn -0.4365692 0.7044237 -0.5596379
vn 0.08702291 0.7044237 -0.7044248
vn -0.1743227 0.9763404 -0.1279502
vn -0.1743227 0.9763404 -0.1279502
vn -0.1279503 0.9763403 0.1743226
vn -0.2137392 0.9763404 0.03279027
vn -0.1279503 0.9763403 0.1743226
vn -0.08702292 0.7044237 0.7044248
vn -0.5596377 0.704424 0.4365689
vn 0.03279027 0.9763404 0.2137392
vn -0.7044241 0.7044245 -0.08702263
vn -0.4365692 0.7044237 -0.5596379
vn -0.2137392 0.9763404 0.03279027
vn -0.7044241 0.7044245 -0.08702263
vn -0.01059107 -0.9971908 0.07415036
vn -0.4313906 -0.7039812 0.5641921
vn 0.09390482 -0.7039825 0.7039818
vn -0.05992125 -0.9971908 0.04494323
vn -0.7039829 -0.7039814 0.09390481
vn -0.07415038 -0.9971908 -0.01059107
vn 0 -1 0
vn 0.04494323 -0.9971908 0.05992125
vn 0.09390482 -0.7039825 0.7039818
vn 0.5641907 -0.7039828 0.4313896
vn -0.01059107 -0.9971908 0.07415036
vn 0.04494323 -0.9971908 0.05992125
vn -0.5641947 -0.703978 -0.4313923
vn -0.04494323 -0.9971908 -0.05992125
vn 0.07415037 -0.9971908 0.01059108
vn 0.7039818 -0.7039825 -0.09390482
vn 0.07415037 -0.9971908 0.01059108
vn 0.05992125 -0.9971908 -0.04494323
vn 0.01059111 -0.9971908 -0.07415036
vn -0.09390484 -0.7039797 -0.7039846
vn 0.7039818 -0.7039825 -0.09390482
vn 0.4313896 -0.7039828 -0.5641907
vn 0.01059111 -0.9971908 -0.07415036
vn 0.4313896 -0.7039828 -0.5641907
vn -0.09390484 -0.7039797 -0.7039846

vt 0.1959144 0.6707929
vt 0.1603243 0.6707929
vt 0.1959144 0.9733075
vt 0.1603243 0.9733075
vt 0.1955753 0.6707929
vt 0.1599852 0.6707929
vt 0.1955753 0.9733075
vt 0.1599852 0.9733075
vt 0.1376259 1
vt 0.2177035 0.9733075
vt 0.1376259 0.9733075
vt 0.2177035 1
vt 0.1109335 0.9733075
vt 0.1109335 0.6707929
vt 0.1376259 0.9733075
vt 0.1376259 0.6707929
vt 0.1109335 0.9733075
vt 0.1376259 0.6441004
vt 0.2177035 0.6441004
vt 0.1376259 0.6707929
vt 0.2177035 0.6707929
vt 0.1376259 0.6441004
vt 0.2443959 0.6707929
vt 0.2177035 0.6441004
vt 0.2177035 0.6707929
vt 0.2443959 0.9733075
vt 0.2177035 0.9733075
vt 0.2177035 0.9733075
vt 0.1376259 0.9733075
vt 0.2443959 0.9733075
vt 0.1381961 1
vt 0.2182737 0.9733075
vt 0.1381961 0.9733075
vt 0.2182737 1
vt 0.2449661 0.9733075
vt 0.2182737 0.6707929
vt 0.2182737 0.9733075
vt 0.2449661 0.6707929
vt 0.2182737 1
vt 0.2182737 0.6707929
vt 0.1381961 0.6707929
vt 0.1115037 0.6707929
vt 0.1115037 0.9733075
vt 0.2449661 0.6707929
vt 0.2182737 0.6441004
vt 0.2182737 0.6707929
vt 0.1381961 0.6707929
vt 0.1381961 0.6441004
vt 0.1115037 0.6707929
vt 0.2182737 0.4779257
vt 0.2449661 0.5135158
vt 0.2449661 0.4779257
vt 0.2182737 0.5135158
vt 0.1381961 0.5135158
vt 0.1115037 0.4779257
vt 0.1115037 0.5135158
vt 0.1381961 0.4779257
vt 0.2182737 0.4779257
vt 0.1381961 0.4779257
vt 0.2182737 0.5135158
vt 0.1381961 0.5135158
vt 0.1376259 0.5135158
vt 0.1109335 0.4779257
vt 0.1109335 0.5135158
vt 0.1376259 0.4779257
vt 0.1376259 0.5135158
vt 0.2177035 0.5135158
vt 0.1376259 0.4779257
vt 0.2177035 0.4779257
vt 0.2177035 0.4779257
vt 0.2443959 0.5135158
vt 0.2443959 0.4779257
vt 0.2177035 0.5135158
vt 0.1779498 0.1669169
vt 0.1779498 0.6562788
vt 0.1968242 0.1669169
vt 0.1968242 0.6562788
vt 0.1590754 0.1669169
vt 0.1590754 0.6562788
vt 0.1779498 0.1669169
vt 0.1779498 0.6562788
vt 0.1968242 0.1669169
vt 0.1968242 0.6562788
vt 0.1590754 0.1669169
vt 0.1590754 0.6562788
vt 0.1779498 0.1669169
vt 0.1779498 0.6562788
vt 0.1968242 0.1669169
vt 0.1968242 0.6562788
vt 0.1590754 0.1669169
vt 0.1590754 0.6562788
vt 0.1779498 0.1669169
vt 0.1779498 0.6562788
vt 0.1968242 0.1669169
vt 0.1968242 0.6562788
vt 0.1590754 0.1669169
vt 0.1590754 0.6562788
vt 0.1779498 0
vt 0.1779498 0.1423598
vt 0.3037793 0
vt 0.3037793 0.1423598
vt 0.05212032 0
vt 0.05212032 0.1423598
vt 0.1779498 0
vt 0.1779498 0.1423598
vt 0.1779498 0
vt 0.1779498 0.1423598
vt 0.3037793 0
vt 0.3037793 0.1423598
vt 0.05212032 0
vt 0.05212032 0.1423598
vt 0.1779498 0
vt 0.1779498 0.1423598
vt 0.1779498 0
vt 0.1779498 0.1423598
vt 0.3037793 0
vt 0.3037793 0.1423598
vt 0.05212032 0
vt 0.05212032 0.1423598
vt 0.1779498 0
vt 0.05212032 0.1423598
vt 0.1779498 0.1423598
vt 0.1779498 0
vt 0.3037793 0
vt 0.3037793 0.1423598
vt 0.05212032 0
vt 0.05212032 0.1423598
vt 0.1779498 0
vt 0.1779498 0.1423598
vt 0.0709947 0.6025063
vt 0 0.4955512
vt 0.05212032 0.6213807
vt 0.0266924 0.4955512
vt 0.0266924 0.4955512
vt 0.05212032 0.3697218
vt 0 0.4955512
vt 0.0709947 0.3885961
vt 0.0709947 0.6025063
vt 0.1779498 0.4955512
vt 0.0266924 0.4955512
vt 0.0709947 0.3885961
vt 0.1779498 0.3176014
vt 0.05212032 0.3697218
vt 0.1779498 0.3442938
vt 0.1779498 0.6468086
vt 0.1779498 0.6735011
vt 0.1779498 0.6468086
vt 0.1779498 0.3442938
vt 0.3037793 0.3697218
vt 0.1779498 0.3176014
vt 0.2849049 0.3885961
vt 0.2849049 0.3885961
vt 0.2849049 0.6025063
vt 0.3292071 0.4955512
vt 0.2849049 0.6025063
vt 0.1779498 0.6735011
vt 0.3037793 0.6213807
vt 0.1779498 0.6468086
vt 0.3558996 0.4955512
vt 0.3037793 0.3697218
vt 0.3292071 0.4955512
vt 0.3558996 0.4955512
vt 0.1779498 0.6646035
vt 0.05212032 0.6213807
vt 0.1779498 0.6735011
vt 0.05841176 0.6150892
vt 0 0.4955512
vt 0.008897524 0.4955512
vt 0.1779498 0.4955512
vt 0.2974878 0.6150892
vt 0.1779498 0.6735011
vt 0.3037793 0.6213807
vt 0.1779498 0.6646035
vt 0.2974878 0.6150892
vt 0.05212032 0.3697218
vt 0.05841176 0.3760131
vt 0.3470021 0.4955512
vt 0.3558996 0.4955512
vt 0.3470021 0.4955512
vt 0.2974878 0.3760133
vt 0.1779498 0.326499
vt 0.1779498 0.3176014
vt 0.3558996 0.4955512
vt 0.3037793 0.3697218
vt 0.1779498 0.326499
vt 0.3037793 0.3697218
vt 0.1779498 0.3176014

g pb_Mesh333618_0
usemtl LGreen
f 3/3/3 2/2/2 1/1/1
f 3/3/3 4/4/4 2/2/2
f 7/7/7 6/6/6 5/5/5
f 7/7/7 8/8/8 6/6/6
f 11/11/11 10/10/10 9/9/9
f 10/10/10 12/12/12 9/9/9
f 9/9/9 13/13/13 11/11/11
f 16/16/16 15/15/15 14/14/14
f 15/15/15 17/17/17 14/14/14
f 14/14/14 18/18/18 16/16/16
f 21/21/21 20/20/20 19/19/19
f 20/20/20 22/22/22 19/19/19
f 25/25/25 24/24/24 23/23/23
f 23/23/23 26/26/26 25/25/25
f 26/26/26 27/27/27 25/25/25
f 28/28/28 20/20/20 21/21/21
f 28/28/28 29/29/29 20/20/20
f 12/12/12 10/10/10 30/30/30
f 33/33/33 32/32/32 31/31/31
f 32/32/32 34/34/34 31/31/31
f 37/37/37 36/36/36 35/35/35
f 36/36/36 38/38/38 35/35/35
f 37/37/37 35/35/35 39/39/39
f 32/32/32 41/41/41 40/40/40
f 32/32/32 33/33/33 41/41/41
f 41/41/41 33/33/33 42/42/42
f 33/33/33 43/43/43 42/42/42
f 31/31/31 43/43/43 33/33/33
f 46/46/46 45/45/45 44/44/44
f 46/46/46 47/47/47 45/45/45
f 47/47/47 48/48/48 45/45/45
f 49/49/49 48/48/48 47/47/47
f 52/52/52 51/51/51 50/50/50
f 51/51/51 53/53/53 50/50/50
f 56/56/56 55/55/55 54/54/54
f 55/55/55 57/57/57 54/54/54
f 60/60/60 59/59/59 58/58/58
f 60/60/60 61/61/61 59/59/59
f 64/64/64 63/63/63 62/62/62
f 63/63/63 65/65/65 62/62/62
f 68/68/68 67/67/67 66/66/66
f 68/68/68 69/69/69 67/67/67
f 72/72/72 71/71/71 70/70/70
f 71/71/71 73/73/73 70/70/70

g pb_Mesh333618_1
usemtl Grey
f 76/76/76 75/75/75 74/74/74
f 76/76/76 77/77/77 75/75/75
f 80/80/80 79/79/79 78/78/78
f 80/80/80 81/81/81 79/79/79
f 82/82/82 81/81/81 80/80/80
f 82/82/82 83/83/83 81/81/81
f 86/86/86 85/85/85 84/84/84
f 86/86/86 87/87/87 85/85/85
f 88/88/88 87/87/87 86/86/86
f 88/88/88 89/89/89 87/87/87
f 92/92/92 91/91/91 90/90/90
f 92/92/92 93/93/93 91/91/91
f 94/94/94 93/93/93 92/92/92
f 94/94/94 95/95/95 93/93/93
f 74/74/74 97/97/97 96/96/96
f 74/74/74 75/75/75 97/97/97

g pb_Mesh333618_2
usemtl Black
f 100/100/100 99/99/99 98/98/98
f 100/100/100 101/101/101 99/99/99
f 104/104/104 103/103/103 102/102/102
f 104/104/104 105/105/105 103/103/103
f 108/108/108 107/107/107 106/106/106
f 108/108/108 109/109/109 107/107/107
f 112/112/112 111/111/111 110/110/110
f 112/112/112 113/113/113 111/111/111
f 116/116/116 115/115/115 114/114/114
f 116/116/116 117/117/117 115/115/115
f 120/120/120 119/119/119 118/118/118
f 123/123/123 122/122/122 121/121/121
f 124/124/124 122/122/122 123/123/123
f 124/124/124 125/125/125 122/122/122
f 128/128/128 127/127/127 126/126/126
f 128/128/128 129/129/129 127/127/127
f 132/132/132 131/131/131 130/130/130
f 131/131/131 133/133/133 130/130/130
f 136/136/136 135/135/135 134/134/134
f 135/135/135 137/137/137 134/134/134
f 140/140/140 139/139/139 138/138/138
f 141/141/141 139/139/139 140/140/140
f 143/143/143 142/142/142 141/141/141
f 142/142/142 144/144/144 141/141/141
f 144/144/144 139/139/139 141/141/141
f 146/146/146 132/132/132 145/145/145
f 132/132/132 130/130/130 145/145/145
f 138/138/138 139/139/139 147/147/147
f 150/150/150 149/149/149 148/148/148
f 149/149/149 151/151/151 148/148/148
f 152/152/152 139/139/139 144/144/144
f 147/147/147 139/139/139 153/153/153
f 154/154/154 139/139/139 152/152/152
f 153/153/153 139/139/139 154/154/154
f 157/157/157 156/156/156 155/155/155
f 156/156/156 158/158/158 155/155/155
f 160/160/160 159/159/159 152/152/152
f 159/159/159 154/154/154 152/152/152
f 162/162/162 157/157/157 161/161/161
f 157/157/157 155/155/155 161/161/161
f 165/165/165 164/164/164 163/163/163
f 164/164/164 166/166/166 163/163/163
f 164/164/164 167/167/167 166/166/166
f 167/167/167 168/168/168 166/166/166
f 166/166/166 169/169/169 163/163/163
f 168/168/168 169/169/169 166/166/166
f 172/172/172 171/171/171 170/170/170
f 171/171/171 173/173/173 170/170/170
f 163/163/163 169/169/169 174/174/174
f 167/167/167 175/175/175 168/168/168
f 175/175/175 176/176/176 168/168/168
f 176/176/176 169/169/169 168/168/168
f 178/178/178 172/172/172 177/177/177
f 172/172/172 170/170/170 177/177/177
f 174/174/174 169/169/169 179/179/179
f 179/179/179 169/169/169 180/180/180
f 181/181/181 169/169/169 176/176/176
f 180/180/180 169/169/169 181/181/181
f 175/175/175 182/182/182 176/176/176
f 182/182/182 181/181/181 176/176/176
f 184/184/184 183/183/183 180/180/180
f 183/183/183 179/179/179 180/180/180
f 187/187/187 186/186/186 185/185/185
f 184/184/184 180/180/180 181/181/181

