# Exported from ProBuilder
# http://www.procore3d.com/probuilder
# 8/7/2017 1:13:14 AM

mtllib ./RailwaySignCircle.mtl
o RailwaySignCircle

g RailwaySignCircle
v -1.698398 3.638312 0.5019054
v 0.001602173 3.638312 0.5019054
v -1.20048 2.436231 0.5019054
v 0.001602173 1.938313 0.5019054
v 1.203684 2.436231 0.5019054
v 1.701603 3.638312 0.5019054
v -1.20048 4.840394 0.5019054
v 0.001602173 5.338312 0.5019054
v 1.203684 4.840394 0.5019054
v 1.701603 3.638312 -0.4980946
v 0.001602173 3.638312 -0.4980946
v 1.203684 2.436231 -0.4980946
v 0.001602173 1.938313 -0.4980946
v -1.20048 2.436231 -0.4980946
v -1.698398 3.638312 -0.4980946
v 1.203684 4.840394 -0.4980946
v 0.001602173 5.338313 -0.4980946
v -1.20048 4.840394 -0.4980946
v 1.415815 5.052526 -0.1980953
v 1.415815 5.052526 0.2019062
v 0.001602173 5.638312 -0.1980934
v 0.001602173 5.638312 0.2019062
v 1.203684 4.840394 0.5019054
v 0.001602173 5.338312 0.5019054
v 0.001602173 5.338313 -0.4980946
v 1.203684 4.840394 -0.4980946
v 2.001602 3.638312 -0.1980953
v 2.001602 3.638312 0.2019062
v 1.415815 5.052526 -0.1980953
v 1.415815 5.052526 0.2019062
v 1.203684 4.840394 -0.4980946
v 1.701603 3.638312 -0.4980946
v 1.701603 3.638312 0.5019054
v 1.203684 4.840394 0.5019054
v 1.203684 2.436231 0.5019054
v 2.001602 3.638312 0.2019062
v 1.415815 2.224099 0.2019043
v 1.701603 3.638312 0.5019054
v 1.701603 3.638312 -0.4980946
v 1.415815 2.224099 -0.1980953
v 2.001602 3.638312 -0.1980953
v 1.203684 2.436231 -0.4980946
v 1.203684 2.436231 -0.4980946
v 0.001602173 1.638313 -0.1980953
v 1.415815 2.224099 -0.1980953
v 1.203684 2.436231 -0.4980946
v 0.001602173 1.938313 -0.4980946
v 0.001602173 1.638313 -0.1980953
v 0.001602173 1.638313 0.2019043
v 1.415815 2.224099 0.2019043
v 0.001602173 1.938313 0.5019054
v 1.415815 2.224099 0.2019043
v 0.001602173 1.638313 0.2019043
v 1.203684 2.436231 0.5019054
v -1.20048 2.436231 0.5019054
v 0.001602173 1.638313 0.2019043
v -1.412611 2.224099 0.2019043
v 0.001602173 1.938313 0.5019054
v 0.001602173 1.938313 -0.4980946
v -1.412611 2.224099 -0.1980953
v 0.001602173 1.638313 -0.1980953
v -1.20048 2.436231 -0.4980946
v -1.20048 2.436231 -0.4980946
v -1.998398 3.638312 -0.1980953
v -1.412611 2.224099 -0.1980953
v -1.20048 2.436231 -0.4980946
v -1.698398 3.638312 -0.4980946
v -1.998398 3.638312 -0.1980953
v -1.998398 3.638312 0.2019062
v -1.412611 2.224099 0.2019043
v -1.698398 3.638312 0.5019054
v -1.412611 2.224099 0.2019043
v -1.998398 3.638312 0.2019062
v -1.20048 2.436231 0.5019054
v -1.698398 3.638312 -0.4980946
v -1.412611 5.052526 -0.1980953
v -1.998398 3.638312 -0.1980953
v -1.20048 4.840394 -0.4980946
v -1.412611 5.052526 0.2019062
v -1.998398 3.638312 0.2019062
v -1.20048 4.840394 0.5019054
v -1.698398 3.638312 0.5019054
v -1.20048 4.840394 -0.4980946
v 0.001602173 5.638312 -0.1980934
v -1.412611 5.052526 -0.1980953
v 0.001602173 5.338313 -0.4980946
v 0.001602173 5.638312 0.2019062
v -1.412611 5.052526 0.2019062
v 0.001602173 5.338312 0.5019054
v -1.412611 5.052526 0.2019062
v 0.001602173 5.638312 0.2019062
v -1.20048 4.840394 0.5019054
v -0.3016014 -3.662312 0
v -0.3016014 1.837688 0
v -0.2137337 -3.662312 0.2121315
v -0.2137337 1.837688 0.2121315
v -0.2137337 -3.662312 0.2121315
v -0.2137337 1.837688 0.2121315
v -0.001602173 -3.662312 0.2999992
v -0.001602173 1.837688 0.2999992
v 0.2105293 -3.662312 0.2121315
v 0.2105293 1.837688 0.2121315
v 0.2105293 -3.662312 0.2121315
v 0.2105293 1.837688 0.2121315
v 0.2983971 -3.662312 0
v 0.2983971 1.837688 0
v 0.2105293 -3.662312 -0.2121315
v 0.2105293 1.837688 -0.2121315
v 0.2105293 -3.662312 -0.2121315
v 0.2105293 1.837688 -0.2121315
v -0.001602173 -3.662312 -0.2999992
v -0.001602173 1.837688 -0.2999992
v -0.2137337 -3.662312 -0.2121315
v -0.2137337 1.837688 -0.2121315
v -0.2137337 -3.662312 -0.2121315
v -0.2137337 1.837688 -0.2121315
v -2.001602 -5.538312 0
v -2.001602 -3.938312 0
v -1.415815 -5.538312 1.414213
v -1.415815 -3.938312 1.414213
v -1.415815 -5.538312 1.414213
v -1.415815 -3.938312 1.414213
v -0.001602173 -5.538312 2
v -0.001602173 -3.938312 2
v -0.001602173 -5.538312 2
v -0.001602173 -3.938312 2
v 1.412611 -5.538312 1.414213
v 1.412611 -3.938312 1.414213
v 1.412611 -5.538312 1.414213
v 1.412611 -3.938312 1.414213
v 1.998398 -5.538312 0
v 1.998398 -3.938312 0
v 1.998398 -5.538312 0
v 1.998398 -3.938312 0
v 1.412611 -5.538312 -1.414213
v 1.412611 -3.938312 -1.414213
v 1.412611 -5.538312 -1.414213
v 1.412611 -3.938312 -1.414213
v -0.001602173 -5.538312 -2
v 1.412611 -3.938312 -1.414213
v -0.001602173 -3.938312 -2
v -0.001602173 -5.538312 -2
v -1.415815 -5.538312 -1.414213
v -1.415815 -3.938312 -1.414213
v -1.415815 -5.538312 -1.414213
v -1.415815 -3.938312 -1.414213
v -2.001602 -5.538312 0
v -2.001602 -3.938312 0
v 1.20048 -3.638312 1.202082
v 1.998398 -3.938312 0
v 1.412611 -3.938312 1.414213
v 1.698399 -3.638312 0
v 1.698399 -3.638312 0
v 1.412611 -3.938312 -1.414213
v 1.998398 -3.938312 0
v 1.20048 -3.638312 -1.202082
v 1.20048 -3.638312 1.202082
v -0.001602173 -3.638312 0
v 1.698399 -3.638312 0
v 1.20048 -3.638312 -1.202082
v -0.001602173 -3.938312 -2
v 1.412611 -3.938312 -1.414213
v -0.001602173 -3.638312 -1.700001
v -0.001602173 -3.638312 1.700001
v -0.001602173 -3.938312 2
v -0.001602173 -3.638312 1.700001
v -0.001602173 -3.638312 -1.700001
v -1.415815 -3.938312 -1.414213
v -0.001602173 -3.938312 -2
v -1.203684 -3.638312 -1.202082
v -1.203684 -3.638312 -1.202082
v -1.203684 -3.638312 1.202082
v -1.701602 -3.638312 0
v -1.203684 -3.638312 1.202082
v -0.001602173 -3.938312 2
v -1.415815 -3.938312 1.414213
v -0.001602173 -3.638312 1.700001
v -2.001602 -3.938312 0
v -1.415815 -3.938312 -1.414213
v -1.701602 -3.638312 0
v -2.001602 -3.938312 0
v -0.001602173 -5.638312 1.9
v -1.415815 -5.538312 1.414213
v -0.001602173 -5.538312 2
v -1.345105 -5.638312 1.343502
v -2.001602 -5.538312 0
v -1.901602 -5.638312 0
v -0.001602173 -5.638312 0
v 1.3419 -5.638312 1.343502
v -0.001602173 -5.538312 2
v 1.412611 -5.538312 1.414213
v -0.001602173 -5.638312 1.9
v 1.3419 -5.638312 1.343502
v -1.415815 -5.538312 -1.414213
v -1.345105 -5.638312 -1.343504
v 1.898397 -5.638312 0
v 1.998398 -5.538312 0
v 1.898397 -5.638312 0
v 1.3419 -5.638312 -1.343502
v -0.001602173 -5.638312 -1.9
v -0.001602173 -5.538312 -2
v 1.998398 -5.538312 0
v 1.412611 -5.538312 -1.414213
v -0.001602173 -5.638312 -1.9
v 1.412611 -5.538312 -1.414213
v -0.001602173 -5.538312 -2

vn 0 0 1
vn 0 0 1
vn 0 0 1
vn 0 0 1
vn 0 0 1
vn 0 0 1
vn 0 0 1
vn 0 0 1
vn 0 0 1
vn 0 0 -1
vn 0 0 -1
vn 0 0 -1
vn 0 0 -1
vn 0 0 -1
vn 0 0 -1
vn 0 0 -1
vn 0 0 -1
vn 0 0 -1
vn 0.6165192 0.5925304 -0.3586853
vn 0.5925301 0.6165192 0.3586858
vn 0.3710852 0.8958789 -0.2443295
vn 0.3371593 0.8139741 0.473043
vn 0.4798414 0.4798414 0.6785986
vn 0.281084 0.6785975 0.6785995
vn 0.2810849 0.6785994 -0.6785972
vn 0.4798416 0.4798415 -0.6785984
vn 0.8139747 0.3371597 -0.4730417
vn 0.8958787 0.3710855 0.2443294
vn 0.6165192 0.5925304 -0.3586853
vn 0.5925301 0.6165192 0.3586858
vn 0.4798416 0.4798415 -0.6785984
vn 0.6785982 0.2810849 -0.6785982
vn 0.6785983 0.2810849 0.6785983
vn 0.4798414 0.4798414 0.6785986
vn 0.6785989 -0.2810857 0.6785973
vn 0.8139749 -0.3371601 0.4730411
vn 0.8958787 -0.3710857 0.2443297
vn 0.6785982 -0.281085 0.6785983
vn 0.6785982 -0.2810848 -0.6785985
vn 0.8139743 -0.3371595 -0.4730425
vn 0.8958786 -0.3710853 -0.2443298
vn 0.6785979 -0.2810848 -0.6785986
vn 0.2810843 -0.6785976 -0.6785992
vn 0.337159 -0.813974 -0.4730434
vn 0.3710851 -0.8958786 -0.2443307
vn 0.2810843 -0.6785976 -0.6785992
vn 0.281084 -0.6785975 -0.6785995
vn 0.337159 -0.813974 -0.4730434
vn 0.3710851 -0.8958786 0.2443306
vn 0.3371594 -0.8139748 0.473042
vn 0.2810851 -0.6785997 0.6785969
vn 0.3371594 -0.8139748 0.473042
vn 0.3710851 -0.8958786 0.2443306
vn 0.281085 -0.6785999 0.6785965
vn -0.2810851 -0.6785997 0.6785969
vn -0.3371593 -0.8139747 0.473042
vn -0.3710851 -0.8958786 0.2443303
vn -0.2810848 -0.6785994 0.6785972
vn -0.2810842 -0.6785976 -0.6785992
vn -0.3371591 -0.8139741 -0.4730434
vn -0.371085 -0.8958785 -0.244331
vn -0.2810842 -0.6785979 -0.6785988
vn -0.6785977 -0.2810844 -0.6785991
vn -0.8139744 -0.3371594 -0.4730424
vn -0.8958786 -0.3710853 -0.24433
vn -0.6785977 -0.2810844 -0.6785991
vn -0.6785973 -0.2810841 -0.6785995
vn -0.8139744 -0.3371594 -0.4730424
vn -0.8958784 -0.3710856 0.2443305
vn -0.8139743 -0.3371597 0.4730425
vn -0.6785985 -0.2810852 0.6785979
vn -0.8139743 -0.3371597 0.4730425
vn -0.8958784 -0.3710856 0.2443305
vn -0.6786002 -0.2810852 0.6785962
vn -0.6785978 0.2810845 -0.6785989
vn -0.8139744 0.3371594 -0.4730422
vn -0.8958786 0.3710854 -0.2443302
vn -0.6785985 0.2810845 -0.6785983
vn -0.8958787 0.3710855 0.2443295
vn -0.8139744 0.3371594 0.4730423
vn -0.6785978 0.2810845 0.6785989
vn -0.6785975 0.281084 0.6785995
vn -0.2810849 0.6785995 -0.6785972
vn -0.3371594 0.8139749 -0.4730418
vn -0.3710851 0.8958787 -0.2443299
vn -0.2810857 0.6786003 -0.678596
vn -0.3710853 0.8958785 0.2443306
vn -0.3371594 0.8139744 0.4730422
vn -0.2810845 0.6785978 0.6785989
vn -0.3371594 0.8139744 0.4730422
vn -0.3710853 0.8958785 0.2443306
vn -0.2810845 0.6785985 0.6785983
vn -0.9238796 0 0
vn -0.9238796 0 0
vn -0.6532815 0 0.6532815
vn -0.6532815 0 0.6532815
vn -0.6532815 0 0.6532815
vn -0.6532815 0 0.6532815
vn 0 0 0.9238796
vn 0 0 0.9238796
vn 0.6532815 0 0.6532815
vn 0.6532815 0 0.6532815
vn 0.6532815 0 0.6532815
vn 0.6532815 0 0.6532815
vn 0.9238796 0 0
vn 0.9238796 0 0
vn 0.6532815 0 -0.6532815
vn 0.6532815 0 -0.6532815
vn 0.6532815 0 -0.6532815
vn 0.6532815 0 -0.6532815
vn 0 0 -0.9238796
vn 0 0 -0.9238796
vn -0.6532815 0 -0.6532815
vn -0.6532815 0 -0.6532815
vn -0.6532815 0 -0.6532815
vn -0.6532815 0 -0.6532815
vn -0.9238794 0 0
vn -0.9238794 0 0
vn -0.6532816 0 0.6532816
vn -0.6532816 0 0.6532816
vn -0.6532816 0 0.6532816
vn -0.6532816 0 0.6532816
vn 0 0 0.9238794
vn 0 0 0.9238794
vn 0 0 0.9238794
vn 0 0 0.9238794
vn 0.6532816 0 0.6532816
vn 0.6532816 0 0.6532816
vn 0.6532816 0 0.6532816
vn 0.6532816 0 0.6532816
vn 0.9238794 0 0
vn 0.9238794 0 0
vn 0.9238794 0 0
vn 0.9238794 0 0
vn 0.6532816 0 -0.6532816
vn 0.6532816 0 -0.6532816
vn 0.6532816 0 -0.6532816
vn 0.6532816 0 -0.6532816
vn 0 0 -0.9238794
vn 0.6532816 0 -0.6532816
vn 0 0 -0.9238794
vn 0 0 -0.9238794
vn -0.6532816 0 -0.6532816
vn -0.6532816 0 -0.6532816
vn -0.6532816 0 -0.6532816
vn -0.6532816 0 -0.6532816
vn -0.9238794 0 0
vn -0.9238794 0 0
vn 0.1743226 0.9763403 0.1279503
vn 0.7044248 0.7044237 0.08702291
vn 0.4365692 0.7044237 0.559638
vn 0.2137392 0.9763404 -0.03279027
vn 0.2137392 0.9763404 -0.03279027
vn 0.5596379 0.7044237 -0.4365692
vn 0.7044248 0.7044237 0.08702291
vn 0.1279503 0.9763403 -0.1743226
vn 0.1743226 0.9763403 0.1279503
vn 0 1 0
vn 0.2137392 0.9763404 -0.03279027
vn 0.1279503 0.9763403 -0.1743226
vn 0.08702291 0.7044237 -0.7044248
vn 0.5596379 0.7044237 -0.4365692
vn -0.03279027 0.9763404 -0.2137392
vn 0.03279027 0.9763404 0.2137392
vn -0.08702292 0.7044237 0.7044248
vn 0.03279027 0.9763404 0.2137392
vn -0.03279027 0.9763404 -0.2137392
vn -0.4365692 0.7044237 -0.5596379
vn 0.08702291 0.7044237 -0.7044248
vn -0.1743227 0.9763404 -0.1279502
vn -0.1743227 0.9763404 -0.1279502
vn -0.1279503 0.9763403 0.1743226
vn -0.2137392 0.9763404 0.03279027
vn -0.1279503 0.9763403 0.1743226
vn -0.08702292 0.7044237 0.7044248
vn -0.5596377 0.704424 0.4365689
vn 0.03279027 0.9763404 0.2137392
vn -0.7044241 0.7044245 -0.08702263
vn -0.4365692 0.7044237 -0.5596379
vn -0.2137392 0.9763404 0.03279027
vn -0.7044241 0.7044245 -0.08702263
vn -0.01059107 -0.9971908 0.07415036
vn -0.4313906 -0.7039812 0.5641921
vn 0.09390482 -0.7039825 0.7039818
vn -0.05992125 -0.9971908 0.04494323
vn -0.7039829 -0.7039814 0.09390481
vn -0.07415038 -0.9971908 -0.01059107
vn 0 -1 0
vn 0.04494323 -0.9971908 0.05992125
vn 0.09390482 -0.7039825 0.7039818
vn 0.5641907 -0.7039828 0.4313896
vn -0.01059107 -0.9971908 0.07415036
vn 0.04494323 -0.9971908 0.05992125
vn -0.5641947 -0.703978 -0.4313923
vn -0.04494323 -0.9971908 -0.05992125
vn 0.07415037 -0.9971908 0.01059108
vn 0.7039818 -0.7039825 -0.09390482
vn 0.07415037 -0.9971908 0.01059108
vn 0.05992125 -0.9971908 -0.04494323
vn 0.01059111 -0.9971908 -0.07415036
vn -0.09390484 -0.7039797 -0.7039846
vn 0.7039818 -0.7039825 -0.09390482
vn 0.4313896 -0.7039828 -0.5641907
vn 0.01059111 -0.9971908 -0.07415036
vn 0.4313896 -0.7039828 -0.5641907
vn -0.09390484 -0.7039797 -0.7039846

vt 0.02787671 0.8437014
vt 0.1841752 0.8437014
vt 0.07365545 0.7331817
vt 0.1841752 0.687403
vt 0.2946949 0.7331817
vt 0.3404737 0.8437014
vt 0.07365545 0.9542212
vt 0.1841752 0.9999999
vt 0.2946949 0.9542212
vt 0.02758202 0.8437014
vt 0.1838806 0.8437014
vt 0.07336084 0.7331817
vt 0.1838806 0.687403
vt 0.2944003 0.7331817
vt 0.340179 0.8437014
vt 0.07336084 0.9542212
vt 0.1838806 1
vt 0.2944003 0.9542212
vt 0.05385741 0.490981
vt 0.05385741 0.5277573
vt 0.1838806 0.4909812
vt 0.1838806 0.5277573
vt 0.07336084 0.5553393
vt 0.1838806 0.5553393
vt 0.1838806 0.463399
vt 0.07336084 0.463399
vt 0.2022408 0.8437014
vt 0.1654646 0.8437014
vt 0.2022408 0.9737246
vt 0.1654646 0.9737246
vt 0.2298228 0.9542212
vt 0.2298228 0.8437014
vt 0.1378825 0.8437014
vt 0.1378825 0.9542212
vt 0.1378825 0.7331817
vt 0.1654646 0.8437014
vt 0.1654647 0.7136783
vt 0.1378825 0.8437014
vt 0.2298228 0.8437014
vt 0.2022408 0.7136783
vt 0.2022408 0.8437014
vt 0.2298228 0.7331817
vt 0.2946949 0.463399
vt 0.1841752 0.490981
vt 0.3141983 0.490981
vt 0.2946949 0.463399
vt 0.1841752 0.463399
vt 0.1841752 0.490981
vt 0.1841752 0.5277571
vt 0.3141983 0.5277571
vt 0.1841752 0.5553393
vt 0.3141983 0.5277571
vt 0.1841752 0.5277571
vt 0.2946949 0.5553393
vt 0.07365545 0.5553393
vt 0.1841752 0.5277571
vt 0.05415202 0.5277571
vt 0.1841752 0.5553393
vt 0.1841752 0.463399
vt 0.05415202 0.490981
vt 0.1841752 0.490981
vt 0.07365545 0.463399
vt 0.1382329 0.7331817
vt 0.1658149 0.8437014
vt 0.1658149 0.7136783
vt 0.1382329 0.7331817
vt 0.1382329 0.8437014
vt 0.1658149 0.8437014
vt 0.2025912 0.8437014
vt 0.202591 0.7136783
vt 0.2301732 0.8437014
vt 0.202591 0.7136783
vt 0.2025912 0.8437014
vt 0.2301732 0.7331817
vt 0.1382329 0.8437014
vt 0.1658149 0.9737246
vt 0.1658149 0.8437014
vt 0.1382329 0.9542212
vt 0.2025912 0.9737246
vt 0.2025912 0.8437014
vt 0.2301732 0.9542212
vt 0.2301732 0.8437014
vt 0.2944003 0.463399
vt 0.1838806 0.4909812
vt 0.3139037 0.490981
vt 0.1838806 0.463399
vt 0.1838806 0.5277573
vt 0.3139037 0.5277573
vt 0.1838806 0.5553393
vt 0.3139037 0.5277573
vt 0.1838806 0.5277573
vt 0.2944003 0.5553393
vt 0.1840279 0.17248
vt 0.1840279 0.6781515
vt 0.2035313 0.17248
vt 0.2035313 0.6781515
vt 0.1643771 0.17248
vt 0.1643771 0.6781515
vt 0.1838806 0.17248
vt 0.1838806 0.6781515
vt 0.203384 0.17248
vt 0.203384 0.6781515
vt 0.1645244 0.17248
vt 0.1645244 0.6781515
vt 0.1840279 0.17248
vt 0.1840279 0.6781515
vt 0.2035313 0.17248
vt 0.2035313 0.6781515
vt 0.1646717 0.17248
vt 0.1646717 0.6781515
vt 0.1841752 0.17248
vt 0.1841752 0.6781515
vt 0.2036786 0.17248
vt 0.2036786 0.6781515
vt 0.1645244 0.17248
vt 0.1645244 0.6781515
vt 0.1840279 0
vt 0.1840279 0.1471044
vt 0.314051 0
vt 0.314051 0.1471044
vt 0.05385741 0
vt 0.05385741 0.1471044
vt 0.1838806 0
vt 0.1838806 0.1471044
vt 0.1838806 0
vt 0.1838806 0.1471044
vt 0.3139037 0
vt 0.3139037 0.1471044
vt 0.05400471 0
vt 0.05400471 0.1471044
vt 0.1840279 0
vt 0.1840279 0.1471044
vt 0.1840279 0
vt 0.1840279 0.1471044
vt 0.314051 0
vt 0.314051 0.1471044
vt 0.05415202 0
vt 0.05415202 0.1471044
vt 0.1841752 0
vt 0.05415202 0.1471044
vt 0.1841752 0.1471044
vt 0.1841752 0
vt 0.3141983 0
vt 0.3141983 0.1471044
vt 0.05400471 0
vt 0.05400471 0.1471044
vt 0.1840279 0
vt 0.1840279 0.1471044
vt 0.07365545 0.6197137
vt 0.0002946084 0.509194
vt 0.05415202 0.6392171
vt 0.02787662 0.509194
vt 0.02787662 0.509194
vt 0.05415202 0.3791708
vt 0.0002946084 0.509194
vt 0.07365545 0.3986742
vt 0.07365545 0.6197137
vt 0.1841752 0.509194
vt 0.02787662 0.509194
vt 0.07365545 0.3986742
vt 0.1841752 0.3253134
vt 0.05415202 0.3791708
vt 0.1841752 0.3528954
vt 0.1841752 0.6654925
vt 0.1841752 0.6930745
vt 0.1841752 0.6654925
vt 0.1841752 0.3528954
vt 0.3141983 0.3791708
vt 0.1841752 0.3253134
vt 0.2946949 0.3986742
vt 0.2946949 0.3986742
vt 0.2946949 0.6197137
vt 0.3404737 0.509194
vt 0.2946949 0.6197137
vt 0.1841752 0.6930745
vt 0.3141983 0.6392171
vt 0.1841752 0.6654925
vt 0.3680557 0.509194
vt 0.3141983 0.3791708
vt 0.3404737 0.509194
vt 0.3680557 0.509194
vt 0.1838806 0.6838805
vt 0.05385741 0.6392171
vt 0.1838806 0.6930745
vt 0.06035852 0.6327159
vt 0 0.509194
vt 0.009194064 0.509194
vt 0.1838806 0.509194
vt 0.3074025 0.6327159
vt 0.1838806 0.6930745
vt 0.3139037 0.6392171
vt 0.1838806 0.6838805
vt 0.3074025 0.6327159
vt 0.05385741 0.3791708
vt 0.06035852 0.3856719
vt 0.3585671 0.509194
vt 0.3677611 0.509194
vt 0.3585671 0.509194
vt 0.3074025 0.385672
vt 0.1838806 0.3345075
vt 0.1838806 0.3253134
vt 0.3677611 0.509194
vt 0.3139037 0.3791708
vt 0.1838806 0.3345075
vt 0.3139037 0.3791708
vt 0.1838806 0.3253134

g pb_Mesh333960_0
usemtl Red
f 3/3/3 2/2/2 1/1/1
f 4/4/4 2/2/2 3/3/3
f 5/5/5 2/2/2 4/4/4
f 6/6/6 2/2/2 5/5/5
f 1/1/1 2/2/2 7/7/7
f 7/7/7 2/2/2 8/8/8
f 9/9/9 2/2/2 6/6/6
f 8/8/8 2/2/2 9/9/9
f 12/12/12 11/11/11 10/10/10
f 13/13/13 11/11/11 12/12/12
f 14/14/14 11/11/11 13/13/13
f 15/15/15 11/11/11 14/14/14
f 10/10/10 11/11/11 16/16/16
f 16/16/16 11/11/11 17/17/17
f 17/17/17 11/11/11 18/18/18
f 18/18/18 11/11/11 15/15/15
f 21/21/21 20/20/20 19/19/19
f 21/21/21 22/22/22 20/20/20
f 20/20/20 22/22/22 23/23/23
f 22/22/22 24/24/24 23/23/23
f 21/21/21 19/19/19 25/25/25
f 19/19/19 26/26/26 25/25/25
f 29/29/29 28/28/28 27/27/27
f 29/29/29 30/30/30 28/28/28
f 29/29/29 27/27/27 31/31/31
f 27/27/27 32/32/32 31/31/31
f 28/28/28 30/30/30 33/33/33
f 30/30/30 34/34/34 33/33/33
f 37/37/37 36/36/36 35/35/35
f 36/36/36 38/38/38 35/35/35
f 41/41/41 40/40/40 39/39/39
f 40/40/40 42/42/42 39/39/39
f 41/41/41 37/37/37 40/40/40
f 41/41/41 36/36/36 37/37/37
f 45/45/45 44/44/44 43/43/43
f 48/48/48 47/47/47 46/46/46
f 45/45/45 49/49/49 44/44/44
f 45/45/45 50/50/50 49/49/49
f 53/53/53 52/52/52 51/51/51
f 52/52/52 54/54/54 51/51/51
f 57/57/57 56/56/56 55/55/55
f 56/56/56 58/58/58 55/55/55
f 61/61/61 60/60/60 59/59/59
f 60/60/60 62/62/62 59/59/59
f 61/61/61 57/57/57 60/60/60
f 61/61/61 56/56/56 57/57/57
f 65/65/65 64/64/64 63/63/63
f 68/68/68 67/67/67 66/66/66
f 65/65/65 69/69/69 64/64/64
f 65/65/65 70/70/70 69/69/69
f 73/73/73 72/72/72 71/71/71
f 72/72/72 74/74/74 71/71/71
f 77/77/77 76/76/76 75/75/75
f 76/76/76 78/78/78 75/75/75
f 77/77/77 79/79/79 76/76/76
f 77/77/77 80/80/80 79/79/79
f 79/79/79 80/80/80 81/81/81
f 80/80/80 82/82/82 81/81/81
f 85/85/85 84/84/84 83/83/83
f 84/84/84 86/86/86 83/83/83
f 85/85/85 87/87/87 84/84/84
f 85/85/85 88/88/88 87/87/87
f 91/91/91 90/90/90 89/89/89
f 90/90/90 92/92/92 89/89/89

g pb_Mesh333960_1
usemtl Grey
f 95/95/95 94/94/94 93/93/93
f 95/95/95 96/96/96 94/94/94
f 99/99/99 98/98/98 97/97/97
f 99/99/99 100/100/100 98/98/98
f 101/101/101 100/100/100 99/99/99
f 101/101/101 102/102/102 100/100/100
f 105/105/105 104/104/104 103/103/103
f 105/105/105 106/106/106 104/104/104
f 107/107/107 106/106/106 105/105/105
f 107/107/107 108/108/108 106/106/106
f 111/111/111 110/110/110 109/109/109
f 111/111/111 112/112/112 110/110/110
f 113/113/113 112/112/112 111/111/111
f 113/113/113 114/114/114 112/112/112
f 93/93/93 116/116/116 115/115/115
f 93/93/93 94/94/94 116/116/116

g pb_Mesh333960_2
usemtl Black
f 119/119/119 118/118/118 117/117/117
f 119/119/119 120/120/120 118/118/118
f 123/123/123 122/122/122 121/121/121
f 123/123/123 124/124/124 122/122/122
f 127/127/127 126/126/126 125/125/125
f 127/127/127 128/128/128 126/126/126
f 131/131/131 130/130/130 129/129/129
f 131/131/131 132/132/132 130/130/130
f 135/135/135 134/134/134 133/133/133
f 135/135/135 136/136/136 134/134/134
f 139/139/139 138/138/138 137/137/137
f 142/142/142 141/141/141 140/140/140
f 143/143/143 141/141/141 142/142/142
f 143/143/143 144/144/144 141/141/141
f 147/147/147 146/146/146 145/145/145
f 147/147/147 148/148/148 146/146/146
f 151/151/151 150/150/150 149/149/149
f 150/150/150 152/152/152 149/149/149
f 155/155/155 154/154/154 153/153/153
f 154/154/154 156/156/156 153/153/153
f 159/159/159 158/158/158 157/157/157
f 160/160/160 158/158/158 159/159/159
f 162/162/162 161/161/161 160/160/160
f 161/161/161 163/163/163 160/160/160
f 163/163/163 158/158/158 160/160/160
f 165/165/165 151/151/151 164/164/164
f 151/151/151 149/149/149 164/164/164
f 157/157/157 158/158/158 166/166/166
f 169/169/169 168/168/168 167/167/167
f 168/168/168 170/170/170 167/167/167
f 171/171/171 158/158/158 163/163/163
f 166/166/166 158/158/158 172/172/172
f 173/173/173 158/158/158 171/171/171
f 172/172/172 158/158/158 173/173/173
f 176/176/176 175/175/175 174/174/174
f 175/175/175 177/177/177 174/174/174
f 179/179/179 178/178/178 171/171/171
f 178/178/178 173/173/173 171/171/171
f 181/181/181 176/176/176 180/180/180
f 176/176/176 174/174/174 180/180/180
f 184/184/184 183/183/183 182/182/182
f 183/183/183 185/185/185 182/182/182
f 183/183/183 186/186/186 185/185/185
f 186/186/186 187/187/187 185/185/185
f 185/185/185 188/188/188 182/182/182
f 187/187/187 188/188/188 185/185/185
f 191/191/191 190/190/190 189/189/189
f 190/190/190 192/192/192 189/189/189
f 182/182/182 188/188/188 193/193/193
f 186/186/186 194/194/194 187/187/187
f 194/194/194 195/195/195 187/187/187
f 195/195/195 188/188/188 187/187/187
f 197/197/197 191/191/191 196/196/196
f 191/191/191 189/189/189 196/196/196
f 193/193/193 188/188/188 198/198/198
f 198/198/198 188/188/188 199/199/199
f 200/200/200 188/188/188 195/195/195
f 199/199/199 188/188/188 200/200/200
f 194/194/194 201/201/201 195/195/195
f 201/201/201 200/200/200 195/195/195
f 203/203/203 202/202/202 199/199/199
f 202/202/202 198/198/198 199/199/199
f 206/206/206 205/205/205 204/204/204
f 203/203/203 199/199/199 200/200/200

