# Exported from ProBuilder
# http://www.procore3d.com/probuilder
# 8/7/2017 1:13:14 AM

mtllib ./RailwaySignTriangle.mtl
o RailwaySignTriangle

g RailwaySignTriangle
v 1.703205 1.808309 -0.1980953
v -1.696795 1.808309 -0.1980953
v 1.703205 1.808309 0.2019062
v -1.696795 1.808309 0.2019062
v 0.1373692 5.53998 -0.1980953
v -0.1309605 5.53998 0.2019062
v -0.1309605 5.53998 -0.1980953
v 0.1373692 5.53998 0.2019062
v 0.1373692 5.53998 -0.1980953
v -0.1309605 5.53998 -0.1980953
v 0.0050354 5.270744 -0.4980946
v -0.1309605 5.53998 -0.1980953
v -1.564463 2.077545 -0.4980946
v 0.0050354 5.270744 -0.4980946
v -1.862632 2.076637 -0.1980953
v 0.0050354 5.270744 -0.4980946
v -1.564463 2.077545 -0.4980946
v 1.56904 2.076716 -0.4980946
v 1.86904 2.076637 -0.1980953
v 0.0050354 5.270744 -0.4980946
v 1.56904 2.076716 -0.4980946
v 0.1373692 5.53998 -0.1980953
v -1.696795 1.808309 -0.1980953
v 1.56904 2.076716 -0.4980946
v -1.564463 2.077545 -0.4980946
v 1.703205 1.808309 -0.1980953
v 1.56904 2.076716 -0.4980946
v 1.703205 1.808309 -0.1980953
v 1.86904 2.076637 -0.1980953
v -1.564463 2.077545 -0.4980946
v -1.862632 2.076637 -0.1980953
v -1.696795 1.808309 -0.1980953
v -1.696795 1.808309 0.2019062
v -1.862632 2.076637 -0.1980953
v -1.862632 2.076637 0.2019062
v -1.696795 1.808309 -0.1980953
v -0.1309605 5.53998 -0.1980953
v -1.862632 2.076637 0.2019062
v -1.862632 2.076637 -0.1980953
v -0.1309605 5.53998 0.2019062
v 1.703205 1.808309 -0.1980953
v 1.86904 2.076637 0.2019062
v 1.86904 2.076637 -0.1980953
v 1.703205 1.808309 0.2019062
v 0.1373692 5.53998 0.2019062
v 1.86904 2.076637 -0.1980953
v 1.86904 2.076637 0.2019062
v 0.1373692 5.53998 -0.1980953
v 0.0050354 5.270744 0.5019054
v 1.5711 2.077657 0.5019054
v -1.564463 2.077545 0.5019054
v 0.1373692 5.53998 0.2019062
v 1.5711 2.077657 0.5019054
v 0.0050354 5.270744 0.5019054
v 1.86904 2.076637 0.2019062
v 1.5711 2.077657 0.5019054
v 1.86904 2.076637 0.2019062
v 1.703205 1.808309 0.2019062
v 1.703205 1.808309 0.2019062
v -1.564463 2.077545 0.5019054
v 1.5711 2.077657 0.5019054
v -1.696795 1.808309 0.2019062
v -1.564463 2.077545 0.5019054
v -1.696795 1.808309 0.2019062
v -1.862632 2.076637 0.2019062
v 0.0050354 5.270744 0.5019054
v -1.862632 2.076637 0.2019062
v -0.1309605 5.53998 0.2019062
v -1.564463 2.077545 0.5019054
v -0.1309605 5.53998 0.2019062
v 0.1373692 5.53998 0.2019062
v 0.0050354 5.270744 0.5019054
v -0.2999992 -3.56398 0
v -0.2999992 1.93602 0
v -0.2121315 -3.56398 0.2121315
v -0.2121315 1.93602 0.2121315
v -0.2121315 -3.56398 0.2121315
v -0.2121315 1.93602 0.2121315
v 0 -3.56398 0.2999992
v 0 1.93602 0.2999992
v 0.2121315 -3.56398 0.2121315
v 0.2121315 1.93602 0.2121315
v 0.2121315 -3.56398 0.2121315
v 0.2121315 1.93602 0.2121315
v 0.2999992 -3.56398 0
v 0.2999992 1.93602 0
v 0.2121315 -3.56398 -0.2121315
v 0.2121315 1.93602 -0.2121315
v 0.2121315 -3.56398 -0.2121315
v 0.2121315 1.93602 -0.2121315
v 0 -3.56398 -0.2999992
v 0 1.93602 -0.2999992
v -0.2121315 -3.56398 -0.2121315
v -0.2121315 1.93602 -0.2121315
v -0.2121315 -3.56398 -0.2121315
v -0.2121315 1.93602 -0.2121315
v -2 -5.43998 0
v -2 -3.83998 0
v -1.414213 -5.43998 1.414213
v -1.414213 -3.83998 1.414213
v -1.414213 -5.43998 1.414213
v -1.414213 -3.83998 1.414213
v 0 -5.43998 2
v 0 -3.83998 2
v 0 -5.43998 2
v 0 -3.83998 2
v 1.414213 -5.43998 1.414213
v 1.414213 -3.83998 1.414213
v 1.414213 -5.43998 1.414213
v 1.414213 -3.83998 1.414213
v 2 -5.43998 0
v 2 -3.83998 0
v 2 -5.43998 0
v 2 -3.83998 0
v 1.414213 -5.43998 -1.414213
v 1.414213 -3.83998 -1.414213
v 1.414213 -5.43998 -1.414213
v 1.414213 -3.83998 -1.414213
v 0 -5.43998 -2
v 1.414213 -3.83998 -1.414213
v 0 -3.83998 -2
v 0 -5.43998 -2
v -1.414213 -5.43998 -1.414213
v -1.414213 -3.83998 -1.414213
v -1.414213 -5.43998 -1.414213
v -1.414213 -3.83998 -1.414213
v -2 -5.43998 0
v -2 -3.83998 0
v 1.202082 -3.53998 1.202082
v 2 -3.83998 0
v 1.414213 -3.83998 1.414213
v 1.700001 -3.53998 0
v 1.700001 -3.53998 0
v 1.414213 -3.83998 -1.414213
v 2 -3.83998 0
v 1.202082 -3.53998 -1.202082
v 1.202082 -3.53998 1.202082
v 0 -3.53998 0
v 1.700001 -3.53998 0
v 1.202082 -3.53998 -1.202082
v 0 -3.83998 -2
v 1.414213 -3.83998 -1.414213
v 0 -3.53998 -1.700001
v 0 -3.53998 1.700001
v 0 -3.83998 2
v 0 -3.53998 1.700001
v 0 -3.53998 -1.700001
v -1.414213 -3.83998 -1.414213
v 0 -3.83998 -2
v -1.202082 -3.53998 -1.202082
v -1.202082 -3.53998 -1.202082
v -1.202082 -3.53998 1.202082
v -1.7 -3.53998 0
v -1.202082 -3.53998 1.202082
v 0 -3.83998 2
v -1.414213 -3.83998 1.414213
v 0 -3.53998 1.700001
v -2 -3.83998 0
v -1.414213 -3.83998 -1.414213
v -1.7 -3.53998 0
v -2 -3.83998 0
v 0 -5.53998 1.9
v -1.414213 -5.43998 1.414213
v 0 -5.43998 2
v -1.343503 -5.53998 1.343502
v -2 -5.43998 0
v -1.9 -5.53998 0
v 0 -5.53998 0
v 1.343502 -5.53998 1.343502
v 0 -5.43998 2
v 1.414213 -5.43998 1.414213
v 0 -5.53998 1.9
v 1.343502 -5.53998 1.343502
v -1.414213 -5.43998 -1.414213
v -1.343503 -5.53998 -1.343504
v 1.9 -5.53998 0
v 2 -5.43998 0
v 1.9 -5.53998 0
v 1.343502 -5.53998 -1.343502
v 0 -5.53998 -1.9
v 0 -5.43998 -2
v 2 -5.43998 0
v 1.414213 -5.43998 -1.414213
v 0 -5.53998 -1.9
v 1.414213 -5.43998 -1.414213
v 0 -5.43998 -2

vn 0 -0.9999999 0
vn 0 -0.9999999 0
vn 0 -0.9999999 0
vn 0 -0.9999999 0
vn 0 0.9999999 0
vn 0 0.9999999 0
vn 0 0.9999999 0
vn 0 0.9999999 0
vn 0.6660932 0.3846533 -0.6390318
vn -0.6665128 0.3574103 -0.6542312
vn 0.08023333 0.1188965 -0.9896597
vn -0.6665128 0.3574103 -0.6542312
vn -0.1599918 4.227896E-05 -0.9871184
vn 0.08023333 0.1188965 -0.9896597
vn -0.680196 0.2854149 -0.6751828
vn 0.08023333 0.1188965 -0.9896597
vn -0.1599918 4.227896E-05 -0.9871184
vn 0.08027485 -0.1190914 -0.9896329
vn 0.6905611 0.3120762 -0.6524829
vn 0.08023333 0.1188965 -0.9896597
vn 0.08027485 -0.1190914 -0.9896329
vn 0.6660932 0.3846533 -0.6390318
vn -0.029646 -0.7378916 -0.6742678
vn 0.08027485 -0.1190914 -0.9896329
vn -0.1599918 4.227896E-05 -0.9871184
vn 0.05506504 -0.7317638 -0.6793302
vn 0.08027485 -0.1190914 -0.9896329
vn 0.05506504 -0.7317638 -0.6793302
vn 0.6905611 0.3120762 -0.6524829
vn -0.1599918 4.227896E-05 -0.9871184
vn -0.680196 0.2854149 -0.6751828
vn -0.029646 -0.7378916 -0.6742678
vn -0.8506503 -0.525732 0
vn -0.9438584 0.3303502 0
vn -0.9090748 0.416633 0
vn -0.8506503 -0.525732 0
vn -0.8944272 0.4472136 0
vn -0.9090748 0.416633 0
vn -0.9438584 0.3303502 0
vn -0.8944272 0.4472136 0
vn 0.850653 -0.5257276 0
vn 0.9438581 0.3303508 0
vn 0.9090748 0.416633 0
vn 0.850653 -0.5257276 0
vn 0.8944272 0.4472134 0
vn 0.9090748 0.416633 0
vn 0.9438581 0.3303508 0
vn 0.8944272 0.4472134 0
vn -0.08023012 0.1189641 0.9896518
vn 0.1600675 -8.465398E-05 0.9871061
vn -0.08026697 -0.119004 0.989644
vn 0.668574 0.3581767 0.6517041
vn 0.1600675 -8.465398E-05 0.9871061
vn -0.08023012 0.1189641 0.9896518
vn 0.6804845 0.2855362 0.6748407
vn 0.1600675 -8.465398E-05 0.9871061
vn 0.6804845 0.2855362 0.6748407
vn 0.029536 -0.7373416 0.674874
vn 0.029536 -0.7373416 0.674874
vn -0.08026697 -0.119004 0.989644
vn 0.1600675 -8.465398E-05 0.9871061
vn -0.055002 -0.7309265 0.6802362
vn -0.08026697 -0.119004 0.989644
vn -0.055002 -0.7309265 0.6802362
vn -0.689661 0.3122537 0.6533492
vn -0.08023012 0.1189641 0.9896518
vn -0.689661 0.3122537 0.6533492
vn -0.6626372 0.3826577 0.643805
vn -0.08026697 -0.119004 0.989644
vn -0.6626372 0.3826577 0.643805
vn 0.668574 0.3581767 0.6517041
vn -0.08023012 0.1189641 0.9896518
vn -0.9238796 0 0
vn -0.9238796 0 0
vn -0.6532815 0 0.6532815
vn -0.6532815 0 0.6532815
vn -0.6532815 0 0.6532815
vn -0.6532815 0 0.6532815
vn 0 0 0.9238796
vn 0 0 0.9238796
vn 0.6532815 0 0.6532815
vn 0.6532815 0 0.6532815
vn 0.6532815 0 0.6532815
vn 0.6532815 0 0.6532815
vn 0.9238796 0 0
vn 0.9238796 0 0
vn 0.6532815 0 -0.6532815
vn 0.6532815 0 -0.6532815
vn 0.6532815 0 -0.6532815
vn 0.6532815 0 -0.6532815
vn 0 0 -0.9238796
vn 0 0 -0.9238796
vn -0.6532815 0 -0.6532815
vn -0.6532815 0 -0.6532815
vn -0.6532815 0 -0.6532815
vn -0.6532815 0 -0.6532815
vn -0.9238794 0 0
vn -0.9238794 0 0
vn -0.6532816 0 0.6532816
vn -0.6532816 0 0.6532816
vn -0.6532816 0 0.6532816
vn -0.6532816 0 0.6532816
vn 0 0 0.9238794
vn 0 0 0.9238794
vn 0 0 0.9238794
vn 0 0 0.9238794
vn 0.6532816 0 0.6532816
vn 0.6532816 0 0.6532816
vn 0.6532816 0 0.6532816
vn 0.6532816 0 0.6532816
vn 0.9238794 0 0
vn 0.9238794 0 0
vn 0.9238794 0 0
vn 0.9238794 0 0
vn 0.6532816 0 -0.6532816
vn 0.6532816 0 -0.6532816
vn 0.6532816 0 -0.6532816
vn 0.6532816 0 -0.6532816
vn 0 0 -0.9238794
vn 0.6532816 0 -0.6532816
vn 0 0 -0.9238794
vn 0 0 -0.9238794
vn -0.6532816 0 -0.6532816
vn -0.6532816 0 -0.6532816
vn -0.6532816 0 -0.6532816
vn -0.6532816 0 -0.6532816
vn -0.9238794 0 0
vn -0.9238794 0 0
vn 0.1743226 0.9763403 0.1279503
vn 0.7044248 0.7044237 0.08702291
vn 0.4365692 0.7044237 0.559638
vn 0.2137392 0.9763404 -0.03279027
vn 0.2137392 0.9763404 -0.03279027
vn 0.5596379 0.7044237 -0.4365692
vn 0.7044248 0.7044237 0.08702291
vn 0.1279503 0.9763403 -0.1743226
vn 0.1743226 0.9763403 0.1279503
vn 0 1 0
vn 0.2137392 0.9763404 -0.03279027
vn 0.1279503 0.9763403 -0.1743226
vn 0.08702291 0.7044237 -0.7044248
vn 0.5596379 0.7044237 -0.4365692
vn -0.03279027 0.9763404 -0.2137392
vn 0.03279027 0.9763404 0.2137392
vn -0.08702292 0.7044237 0.7044248
vn 0.03279027 0.9763404 0.2137392
vn -0.03279027 0.9763404 -0.2137392
vn -0.4365692 0.7044237 -0.5596379
vn 0.08702291 0.7044237 -0.7044248
vn -0.1743227 0.9763404 -0.1279502
vn -0.1743227 0.9763404 -0.1279502
vn -0.1279503 0.9763403 0.1743226
vn -0.2137392 0.9763404 0.03279027
vn -0.1279503 0.9763403 0.1743226
vn -0.08702292 0.7044237 0.7044248
vn -0.5596377 0.704424 0.4365689
vn 0.03279027 0.9763404 0.2137392
vn -0.7044241 0.7044245 -0.08702263
vn -0.4365692 0.7044237 -0.5596379
vn -0.2137392 0.9763404 0.03279027
vn -0.7044241 0.7044245 -0.08702263
vn -0.01059107 -0.9971908 0.07415036
vn -0.4313906 -0.7039812 0.5641921
vn 0.09390482 -0.7039825 0.7039818
vn -0.05992125 -0.9971908 0.04494323
vn -0.7039829 -0.7039814 0.09390481
vn -0.07415038 -0.9971908 -0.01059107
vn 0 -1 0
vn 0.04494323 -0.9971908 0.05992125
vn 0.09390482 -0.7039825 0.7039818
vn 0.5641907 -0.7039828 0.4313896
vn -0.01059107 -0.9971908 0.07415036
vn 0.04494323 -0.9971908 0.05992125
vn -0.5641947 -0.703978 -0.4313923
vn -0.04494323 -0.9971908 -0.05992125
vn 0.07415037 -0.9971908 0.01059108
vn 0.7039818 -0.7039825 -0.09390482
vn 0.07415037 -0.9971908 0.01059108
vn 0.05992125 -0.9971908 -0.04494323
vn 0.01059111 -0.9971908 -0.07415036
vn -0.09390484 -0.7039797 -0.7039846
vn 0.7039818 -0.7039825 -0.09390482
vn 0.4313896 -0.7039828 -0.5641907
vn 0.01059111 -0.9971908 -0.07415036
vn 0.4313896 -0.7039828 -0.5641907
vn -0.09390484 -0.7039797 -0.7039846

vt 0.3372695 0.4774047
vt 0.02761436 0.4774047
vt 0.3372695 0.5138348
vt 0.02761436 0.5138348
vt 0.1696391 0.4774047
vt 0.1940773 0.5138348
vt 0.1940773 0.4774047
vt 0.1696391 0.5138348
vt 0.1696391 1
vt 0.1940773 1
vt 0.1816914 0.9754794
vt 0.1940773 1
vt 0.3246335 0.6846587
vt 0.1816914 0.9754794
vt 0.3517893 0.684576
vt 0.1816914 0.9754794
vt 0.3246335 0.6846587
vt 0.03924966 0.6845832
vt 0.01192723 0.684576
vt 0.1816914 0.9754794
vt 0.03924966 0.6845832
vt 0.1696391 1
vt 0.3366857 0.660138
vt 0.03924966 0.6845832
vt 0.3246335 0.6846587
vt 0.0270306 0.660138
vt 0.03924966 0.6845832
vt 0.0270306 0.660138
vt 0.01192723 0.684576
vt 0.3246335 0.6846587
vt 0.3517893 0.684576
vt 0.3366857 0.660138
vt 0.2005387 0.660138
vt 0.1641085 0.684576
vt 0.2005387 0.684576
vt 0.1641085 0.660138
vt 0.1641085 1
vt 0.2005387 0.684576
vt 0.1641085 0.684576
vt 0.2005387 1
vt 0.2001916 0.660138
vt 0.1637614 0.684576
vt 0.2001916 0.684576
vt 0.1637614 0.660138
vt 0.1637614 1
vt 0.2001916 0.684576
vt 0.1637614 0.684576
vt 0.2001916 1
vt 0.1826086 0.9754794
vt 0.325238 0.684669
vt 0.03966657 0.6846587
vt 0.1946609 1
vt 0.325238 0.684669
vt 0.1826086 0.9754794
vt 0.3523729 0.684576
vt 0.325238 0.684669
vt 0.3523729 0.684576
vt 0.3372695 0.660138
vt 0.3372695 0.660138
vt 0.03966657 0.6846587
vt 0.325238 0.684669
vt 0.02761436 0.660138
vt 0.03966657 0.6846587
vt 0.02761436 0.660138
vt 0.01251081 0.684576
vt 0.1826086 0.9754794
vt 0.01251081 0.684576
vt 0.1702228 1
vt 0.03966657 0.6846587
vt 0.1702228 1
vt 0.1946609 1
vt 0.1826086 0.9754794
vt 0.18215 0.1708567
vt 0.18215 0.6717693
vt 0.2014699 0.1708567
vt 0.2014699 0.6717693
vt 0.1628302 0.1708567
vt 0.1628302 0.6717693
vt 0.18215 0.1708567
vt 0.18215 0.6717693
vt 0.2014699 0.1708567
vt 0.2014699 0.6717693
vt 0.1628302 0.1708567
vt 0.1628302 0.6717693
vt 0.18215 0.1708567
vt 0.18215 0.6717693
vt 0.2014699 0.1708567
vt 0.2014699 0.6717693
vt 0.1628302 0.1708567
vt 0.1628302 0.6717693
vt 0.18215 0.1708567
vt 0.18215 0.6717693
vt 0.2014699 0.1708567
vt 0.2014699 0.6717693
vt 0.1628302 0.1708567
vt 0.1628302 0.6717693
vt 0.18215 0
vt 0.18215 0.14572
vt 0.3109495 0
vt 0.3109495 0.14572
vt 0.05335055 0
vt 0.05335055 0.14572
vt 0.18215 0
vt 0.18215 0.14572
vt 0.18215 0
vt 0.18215 0.14572
vt 0.3109495 0
vt 0.3109495 0.14572
vt 0.05335055 0
vt 0.05335055 0.14572
vt 0.18215 0
vt 0.18215 0.14572
vt 0.18215 0
vt 0.18215 0.14572
vt 0.3109495 0
vt 0.3109495 0.14572
vt 0.05335055 0
vt 0.05335055 0.14572
vt 0.18215 0
vt 0.05335055 0.14572
vt 0.18215 0.14572
vt 0.18215 0
vt 0.3109495 0
vt 0.3109495 0.14572
vt 0.05335055 0
vt 0.05335055 0.14572
vt 0.18215 0
vt 0.18215 0.14572
vt 0.07267042 0.6049259
vt 0 0.4954462
vt 0.05335055 0.6242457
vt 0.02732244 0.4954462
vt 0.02732244 0.4954462
vt 0.05335055 0.3666467
vt 0 0.4954462
vt 0.07267042 0.3859666
vt 0.07267042 0.6049259
vt 0.18215 0.4954462
vt 0.02732244 0.4954462
vt 0.07267042 0.3859666
vt 0.18215 0.3132962
vt 0.05335055 0.3666467
vt 0.18215 0.3406186
vt 0.18215 0.6502739
vt 0.18215 0.6775963
vt 0.18215 0.6502739
vt 0.18215 0.3406186
vt 0.3109495 0.3666467
vt 0.18215 0.3132962
vt 0.2916296 0.3859666
vt 0.2916296 0.3859666
vt 0.2916296 0.6049259
vt 0.3369775 0.4954462
vt 0.2916296 0.6049259
vt 0.18215 0.6775963
vt 0.3109495 0.6242457
vt 0.18215 0.6502739
vt 0.3643001 0.4954462
vt 0.3109495 0.3666467
vt 0.3369775 0.4954462
vt 0.3643001 0.4954462
vt 0.18215 0.6684887
vt 0.05335055 0.6242457
vt 0.18215 0.6775963
vt 0.05979048 0.6178057
vt 0 0.4954462
vt 0.009107537 0.4954462
vt 0.18215 0.4954462
vt 0.3045095 0.6178057
vt 0.18215 0.6775963
vt 0.3109495 0.6242457
vt 0.18215 0.6684887
vt 0.3045095 0.6178057
vt 0.05335055 0.3666467
vt 0.05979048 0.3730866
vt 0.3551925 0.4954462
vt 0.3643001 0.4954462
vt 0.3551925 0.4954462
vt 0.3045095 0.3730868
vt 0.18215 0.3224037
vt 0.18215 0.3132962
vt 0.3643001 0.4954462
vt 0.3109495 0.3666467
vt 0.18215 0.3224037
vt 0.3109495 0.3666467
vt 0.18215 0.3132962

g pb_Mesh333722_0
usemtl Yellow
f 3/3/3 2/2/2 1/1/1
f 3/3/3 4/4/4 2/2/2
f 7/7/7 6/6/6 5/5/5
f 6/6/6 8/8/8 5/5/5
f 11/11/11 10/10/10 9/9/9
f 14/14/14 13/13/13 12/12/12
f 13/13/13 15/15/15 12/12/12
f 18/18/18 17/17/17 16/16/16
f 21/21/21 20/20/20 19/19/19
f 20/20/20 22/22/22 19/19/19
f 25/25/25 24/24/24 23/23/23
f 24/24/24 26/26/26 23/23/23
f 29/29/29 28/28/28 27/27/27
f 32/32/32 31/31/31 30/30/30
f 35/35/35 34/34/34 33/33/33
f 34/34/34 36/36/36 33/33/33
f 39/39/39 38/38/38 37/37/37
f 38/38/38 40/40/40 37/37/37
f 43/43/43 42/42/42 41/41/41
f 42/42/42 44/44/44 41/41/41
f 47/47/47 46/46/46 45/45/45
f 46/46/46 48/48/48 45/45/45
f 51/51/51 50/50/50 49/49/49
f 54/54/54 53/53/53 52/52/52
f 53/53/53 55/55/55 52/52/52
f 58/58/58 57/57/57 56/56/56
f 61/61/61 60/60/60 59/59/59
f 60/60/60 62/62/62 59/59/59
f 65/65/65 64/64/64 63/63/63
f 68/68/68 67/67/67 66/66/66
f 67/67/67 69/69/69 66/66/66
f 72/72/72 71/71/71 70/70/70

g pb_Mesh333722_1
usemtl Grey
f 75/75/75 74/74/74 73/73/73
f 75/75/75 76/76/76 74/74/74
f 79/79/79 78/78/78 77/77/77
f 79/79/79 80/80/80 78/78/78
f 81/81/81 80/80/80 79/79/79
f 81/81/81 82/82/82 80/80/80
f 85/85/85 84/84/84 83/83/83
f 85/85/85 86/86/86 84/84/84
f 87/87/87 86/86/86 85/85/85
f 87/87/87 88/88/88 86/86/86
f 91/91/91 90/90/90 89/89/89
f 91/91/91 92/92/92 90/90/90
f 93/93/93 92/92/92 91/91/91
f 93/93/93 94/94/94 92/92/92
f 73/73/73 96/96/96 95/95/95
f 73/73/73 74/74/74 96/96/96

g pb_Mesh333722_2
usemtl Black
f 99/99/99 98/98/98 97/97/97
f 99/99/99 100/100/100 98/98/98
f 103/103/103 102/102/102 101/101/101
f 103/103/103 104/104/104 102/102/102
f 107/107/107 106/106/106 105/105/105
f 107/107/107 108/108/108 106/106/106
f 111/111/111 110/110/110 109/109/109
f 111/111/111 112/112/112 110/110/110
f 115/115/115 114/114/114 113/113/113
f 115/115/115 116/116/116 114/114/114
f 119/119/119 118/118/118 117/117/117
f 122/122/122 121/121/121 120/120/120
f 123/123/123 121/121/121 122/122/122
f 123/123/123 124/124/124 121/121/121
f 127/127/127 126/126/126 125/125/125
f 127/127/127 128/128/128 126/126/126
f 131/131/131 130/130/130 129/129/129
f 130/130/130 132/132/132 129/129/129
f 135/135/135 134/134/134 133/133/133
f 134/134/134 136/136/136 133/133/133
f 139/139/139 138/138/138 137/137/137
f 140/140/140 138/138/138 139/139/139
f 142/142/142 141/141/141 140/140/140
f 141/141/141 143/143/143 140/140/140
f 143/143/143 138/138/138 140/140/140
f 145/145/145 131/131/131 144/144/144
f 131/131/131 129/129/129 144/144/144
f 137/137/137 138/138/138 146/146/146
f 149/149/149 148/148/148 147/147/147
f 148/148/148 150/150/150 147/147/147
f 151/151/151 138/138/138 143/143/143
f 146/146/146 138/138/138 152/152/152
f 153/153/153 138/138/138 151/151/151
f 152/152/152 138/138/138 153/153/153
f 156/156/156 155/155/155 154/154/154
f 155/155/155 157/157/157 154/154/154
f 159/159/159 158/158/158 151/151/151
f 158/158/158 153/153/153 151/151/151
f 161/161/161 156/156/156 160/160/160
f 156/156/156 154/154/154 160/160/160
f 164/164/164 163/163/163 162/162/162
f 163/163/163 165/165/165 162/162/162
f 163/163/163 166/166/166 165/165/165
f 166/166/166 167/167/167 165/165/165
f 165/165/165 168/168/168 162/162/162
f 167/167/167 168/168/168 165/165/165
f 171/171/171 170/170/170 169/169/169
f 170/170/170 172/172/172 169/169/169
f 162/162/162 168/168/168 173/173/173
f 166/166/166 174/174/174 167/167/167
f 174/174/174 175/175/175 167/167/167
f 175/175/175 168/168/168 167/167/167
f 177/177/177 171/171/171 176/176/176
f 171/171/171 169/169/169 176/176/176
f 173/173/173 168/168/168 178/178/178
f 178/178/178 168/168/168 179/179/179
f 180/180/180 168/168/168 175/175/175
f 179/179/179 168/168/168 180/180/180
f 174/174/174 181/181/181 175/175/175
f 181/181/181 180/180/180 175/175/175
f 183/183/183 182/182/182 179/179/179
f 182/182/182 178/178/178 179/179/179
f 186/186/186 185/185/185 184/184/184
f 183/183/183 179/179/179 180/180/180

