# Exported from ProBuilder
# http://www.procore3d.com/probuilder
# 8/7/2017 1:13:15 AM

mtllib ./RailwayTunnel.mtl
o RailwayTunnel

g RailwayTunnel
v -7.980002 -5.706339 17.36001
v -7.000002 -5.706339 17.36001
v -7.980002 -5.706339 -17.36001
v -7.000002 -5.706339 -17.36001
v 2.16312 3.804227 -17.36001
v -2.16312 3.804227 -17.36001
v 2.16312 3.804227 17.36001
v -2.16312 3.804227 17.36001
v 7.000002 -5.70634 17.36001
v 7.980002 -5.70634 17.36001
v 7.000002 -5.70634 -17.36001
v 7.980002 -5.70634 -17.36001
v 6.585744 0.4237781 17.60001
v 7.850215 -5.135706 17.60001
v 6.132697 -0.04644918 17.60001
v 7.290216 -5.135706 17.60001
v 6.132697 -0.04644918 17.60001
v 7.000002 -5.70634 17.36001
v 5.663122 0.1715131 17.36001
v 7.290216 -5.135706 17.60001
v 7.980002 -5.70634 17.36001
v 7.850215 -5.135706 17.60001
v 8.270216 -5.135706 17.36001
v 7.980002 -5.70634 17.36001
v 6.925532 0.7764492 17.36001
v 6.585744 0.4237781 17.60001
v 5.663122 0.8768559 17.60001
v 6.11617 1.347083 17.60001
v 6.132697 -0.04644918 17.60001
v 6.520851 1.061766 17.48001
v 6.455957 1.699754 17.36001
v 6.925532 0.7764492 17.36001
v 2.93553 5.353668 17.36001
v 2.805743 4.783034 17.60001
v 5.663122 0.1715131 17.36001
v 5.663122 0.8768559 17.60001
v 6.132697 -0.04644918 17.60001
v 2.632694 4.02219 17.60001
v 2.16312 3.804227 17.36001
v 2.632694 4.02219 17.60001
v -2.045956 5.135706 17.60001
v -2.632694 4.022189 17.60001
v -2.805744 4.783034 17.60001
v -1.872907 4.374861 17.60001
v -2.16312 3.804227 17.36001
v -2.632694 4.022189 17.60001
v -1.872907 4.374861 17.60001
v 2.16312 3.804227 17.36001
v 1.872906 4.374861 17.60001
v 2.632694 4.02219 17.60001
v 2.805743 4.783034 17.60001
v 1.872906 4.374861 17.60001
v 2.045955 5.135706 17.60001
v 2.632694 4.02219 17.60001
v -2.805744 4.783034 17.60001
v -2.490744 5.244687 17.48001
v -2.045956 5.135706 17.60001
v 2.490742 5.244687 17.48001
v -2.935531 5.353668 17.36001
v -2.175744 5.70634 17.36001
v 2.045955 5.135706 17.60001
v 2.175743 5.70634 17.36001
v 2.175743 5.70634 17.36001
v 2.93553 5.353668 17.36001
v -6.585745 0.423779 17.60001
v -6.520852 1.061767 17.48001
v -6.116171 1.347084 17.60001
v -6.116171 1.347084 17.60001
v -6.132695 -0.04644918 17.60001
v -6.585745 0.423779 17.60001
v -5.663121 0.8768559 17.60001
v -5.663121 0.1715136 17.36001
v -6.925532 0.7764502 17.36001
v -2.805744 4.783034 17.60001
v -2.632694 4.022189 17.60001
v -6.455958 1.699755 17.36001
v -2.16312 3.804227 17.36001
v -2.805744 4.783034 17.60001
v -2.935531 5.353668 17.36001
v -6.585745 0.423779 17.60001
v -8.270215 -5.135705 17.36001
v -6.925532 0.7764502 17.36001
v -7.850215 -5.135705 17.60001
v -7.850215 -5.135705 17.60001
v -6.585745 0.423779 17.60001
v -7.290215 -5.135705 17.60001
v -6.132695 -0.04644918 17.60001
v -5.663121 0.1715136 17.36001
v -7.000002 -5.706339 17.36001
v -7.850215 -5.135705 17.60001
v -7.980002 -5.706339 17.36001
v -8.270215 -5.135705 17.36001
v -7.000002 -5.706339 17.36001
v -7.290215 -5.135705 17.60001
v 6.585744 0.4237781 -17.60001
v 8.270216 -5.135706 -17.36001
v 6.925532 0.7764492 -17.36001
v 7.850215 -5.135706 -17.60001
v 7.980002 -5.70634 -17.36001
v 7.290216 -5.135706 -17.60001
v 6.132697 -0.04644918 -17.60001
v 7.290216 -5.135706 -17.60001
v 5.663122 0.1715131 -17.36001
v 7.000002 -5.70634 -17.36001
v 6.132697 -0.04644918 -17.60001
v 7.850215 -5.135706 -17.60001
v 7.980002 -5.70634 -17.36001
v 6.925532 0.7764492 -17.36001
v 6.520851 1.061766 -17.48001
v 6.585744 0.4237781 -17.60001
v 6.11617 1.347083 -17.60001
v 6.132697 -0.04644918 -17.60001
v 5.663122 0.8768559 -17.60001
v 6.455957 1.699754 -17.36001
v 2.805743 4.783034 -17.60001
v 2.632694 4.02219 -17.60001
v 2.93553 5.353668 -17.36001
v 6.132697 -0.04644918 -17.60001
v 5.663122 0.8768559 -17.60001
v 5.663122 0.1715131 -17.36001
v 2.16312 3.804227 -17.36001
v 2.632694 4.02219 -17.60001
v 2.632694 4.02219 -17.60001
v 2.045955 5.135706 -17.60001
v 1.872906 4.374861 -17.60001
v 2.805743 4.783034 -17.60001
v 2.632694 4.02219 -17.60001
v 1.872906 4.374861 -17.60001
v 2.16312 3.804227 -17.36001
v -2.16312 3.804227 -17.36001
v -1.872907 4.374861 -17.60001
v -2.632694 4.022189 -17.60001
v -1.872907 4.374861 -17.60001
v -2.805744 4.783034 -17.60001
v -2.632694 4.022189 -17.60001
v -2.045956 5.135706 -17.60001
v 2.490742 5.244686 -17.48001
v 2.93553 5.353668 -17.36001
v -2.490744 5.244687 -17.48001
v 2.175743 5.70634 -17.36001
v -2.045956 5.135706 -17.60001
v 2.175743 5.70634 -17.36001
v -2.175744 5.70634 -17.36001
v -2.175744 5.70634 -17.36001
v -2.935531 5.353668 -17.36001
v -2.632694 4.022189 -17.60001
v -5.663121 0.1715136 -17.36001
v -2.16312 3.804227 -17.36001
v -2.632694 4.022189 -17.60001
v -5.663121 0.8768559 -17.60001
v -5.663121 0.1715136 -17.36001
v -6.132695 -0.04644918 -17.60001
v -6.585745 0.423779 -17.60001
v -6.116171 1.347084 -17.60001
v -6.116171 1.347084 -17.60001
v -6.520852 1.061767 -17.48001
v -6.585745 0.423779 -17.60001
v -6.925532 0.7764502 -17.36001
v -2.805744 4.783034 -17.60001
v -6.455958 1.699755 -17.36001
v -2.935531 5.353668 -17.36001
v -2.805744 4.783034 -17.60001
v -6.132695 -0.04644918 -17.60001
v -7.000002 -5.706339 -17.36001
v -5.663121 0.1715136 -17.36001
v -7.290215 -5.135705 -17.60001
v -7.290215 -5.135705 -17.60001
v -7.980002 -5.706339 -17.36001
v -7.000002 -5.706339 -17.36001
v -7.850215 -5.135705 -17.60001
v -8.270215 -5.135705 -17.36001
v -6.585745 0.423779 -17.60001
v -7.850215 -5.135705 -17.60001
v -7.850215 -5.135705 -17.60001
v -6.925532 0.7764502 -17.36001
v -8.270215 -5.135705 -17.36001
v -6.585745 0.423779 -17.60001
v 5.663122 0.1715131 -17.36001
v 2.16312 3.804227 -17.36001
v 5.663122 0.1715131 17.36001
v 2.16312 3.804227 17.36001
v 7.000002 -5.70634 -17.36001
v 7.000002 -5.70634 17.36001
v -2.16312 3.804227 -17.36001
v -5.663121 0.1715136 -17.36001
v -2.16312 3.804227 17.36001
v -5.663121 0.1715136 17.36001
v -7.000002 -5.706339 -17.36001
v -7.000002 -5.706339 17.36001
v 2.93553 5.353668 -17.36001
v 6.455957 1.699754 -17.36001
v 2.93553 5.353668 17.36001
v 6.455957 1.699754 17.36001
v 6.925532 0.7764492 -17.36001
v 8.270216 -5.135706 -17.36001
v 6.925532 0.7764492 17.36001
v 8.270216 -5.135706 17.36001
v 7.980002 -5.70634 -17.36001
v 8.270216 -5.135706 17.36001
v 8.270216 -5.135706 -17.36001
v 7.980002 -5.70634 17.36001
v -8.270215 -5.135705 -17.36001
v -6.925532 0.7764502 -17.36001
v -8.270215 -5.135705 17.36001
v -6.925532 0.7764502 17.36001
v -7.980002 -5.706339 17.36001
v -8.270215 -5.135705 -17.36001
v -8.270215 -5.135705 17.36001
v -7.980002 -5.706339 -17.36001
v -6.455958 1.699755 -17.36001
v -6.455958 1.699755 17.36001
v -2.935531 5.353668 -17.36001
v -2.935531 5.353668 17.36001
v -2.175744 5.70634 -17.36001
v -2.935531 5.353668 17.36001
v -2.935531 5.353668 -17.36001
v -2.175744 5.70634 17.36001
v 2.175743 5.70634 -17.36001
v 2.175743 5.70634 17.36001
v 2.93553 5.353668 -17.36001
v 2.175743 5.70634 17.36001
v 2.175743 5.70634 -17.36001
v 2.93553 5.353668 17.36001

vn 0 -2 0
vn 0 -2 0
vn 0 -2 0
vn 0 -2 0
vn 0 -2 0
vn 0 -2 0
vn 0 -2 0
vn 0 -2 0
vn 0 -2 0
vn 0 -2 0
vn 0 -2 0
vn 0 -2 0
vn 0.5470243 0.2539129 0.7293667
vn 0.5681906 0.1693717 0.7280065
vn -0.554661 -0.2574573 0.7272816
vn -0.4639567 -0.50187 0.7276079
vn -0.554661 -0.2574573 0.7272816
vn -0.8921755 -0.5768216 0.5717114
vn -0.9648116 -0.447837 0.5513226
vn -0.4639567 -0.50187 0.7276079
vn 0.2116076 -1.385094 0.5642886
vn 0.5681906 0.1693717 0.7280065
vn 0.97685 0.324268 0.5582019
vn 0.2116076 -1.385094 0.5642886
vn 0.9648112 0.4478375 0.5513226
vn 0.2980141 0.3093162 0.7718112
vn -0.3354935 -0.5889887 0.7400963
vn 0.3591426 0.6677504 0.7256315
vn -0.5016397 -0.5206605 0.7172572
vn 0.800885 0.8312525 0.5656867
vn 0.6308218 1.122229 0.5554804
vn 0.8008805 0.8312535 0.5656885
vn 0.5962865 1.172454 0.5513224
vn 0.3380795 0.6647518 0.7293667
vn -0.6250942 -1.159526 0.5452439
vn -0.3354935 -0.5889887 0.7400963
vn -0.5016397 -0.5206605 0.7172572
vn -0.3427993 -0.6740324 0.7272815
vn -0.5962862 -1.172453 0.5513226
vn -0.3427993 -0.6740324 0.7272815
vn -0.02667861 0.7490026 0.741625
vn 0.1234868 -0.5429322 0.7667187
vn -0.1704179 0.7492822 0.735316
vn 0.01632943 -0.8345559 0.7269637
vn 0.05003968 -1.472741 0.5405074
vn 0.1234868 -0.5429322 0.7667187
vn 0.01632943 -0.8345559 0.7269637
vn -0.02862517 -1.462964 0.5452436
vn -0.02908063 -0.7582123 0.7400964
vn -0.1916087 -0.8424458 0.7172573
vn 0.1138302 0.5004818 0.7718112
vn -0.02908063 -0.7582123 0.7400964
vn 0.01580664 0.8417901 0.7256317
vn -0.1916087 -0.8424458 0.7172573
vn -0.1704179 0.7492822 0.735316
vn -0.3059113 1.344995 0.5656866
vn -0.02667861 0.7490026 0.741625
vn 0.3059112 1.344995 0.5656864
vn -0.3059071 1.344992 0.5656883
vn -0.027095 1.442974 0.5537263
vn 0.01580664 0.8417901 0.7256317
vn 0.04860465 1.437599 0.5554802
vn 0.04860465 1.437599 0.5554802
vn 0.305907 1.344993 0.5656883
vn -0.4461627 0.4630833 0.7353161
vn -0.8008851 0.8312525 0.5656866
vn -0.3297603 0.5835538 0.7416249
vn -0.3297603 0.5835538 0.7416249
vn 0.323292 -0.3355504 0.7667186
vn -0.4461627 0.4630833 0.7353161
vn 0.3565887 -0.6614583 0.7269638
vn 0.6464418 -1.149454 0.5405075
vn -0.8008805 0.8312535 0.5656884
vn -0.3499601 0.6881124 0.7240511
vn 0.3380793 -0.6647515 0.7293667
vn -0.6156315 1.144639 0.5537266
vn 0.5962866 -1.172454 0.5513223
vn -0.3499601 0.6881124 0.7240511
vn -0.5962863 1.172453 0.5513226
vn -0.5662475 0.2628355 0.7240511
vn -0.9717348 0.3818849 0.5552785
vn -0.9648113 0.4478371 0.5513227
vn -0.5104378 -0.09613836 0.7439392
vn -0.5104378 -0.09613836 0.7439392
vn -0.5662475 0.2628355 0.7240511
vn 0.5389867 -0.3063486 0.7280972
vn 0.5470235 -0.2539124 0.7293669
vn 0.9648116 -0.4478375 0.5513225
vn 0.7674783 -0.7666075 0.5946735
vn -0.5104378 -0.09613836 0.7439392
vn -0.296978 -1.349109 0.5656737
vn -0.9717348 0.3818849 0.5552785
vn 0.7674783 -0.7666075 0.5946735
vn 0.5389867 -0.3063486 0.7280972
vn 0.5662479 0.2628359 -0.7240509
vn 0.9717344 0.381885 -0.5552788
vn 0.9648112 0.4478374 -0.5513227
vn 0.5104378 -0.09613825 -0.7439392
vn 0.2969778 -1.349109 -0.5656736
vn -0.5389873 -0.3063485 -0.7280971
vn -0.5470245 -0.2539127 -0.7293665
vn -0.5389873 -0.3063485 -0.7280971
vn -0.9648113 -0.4478369 -0.5513228
vn -0.767478 -0.7666067 -0.5946738
vn -0.5470245 -0.2539127 -0.7293665
vn 0.5104378 -0.09613825 -0.7439392
vn 0.2969778 -1.349109 -0.5656736
vn 0.800885 0.8312525 -0.5656866
vn 0.800885 0.8312525 -0.5656866
vn 0.4461622 0.4630795 -0.7353166
vn 0.3297603 0.5835546 -0.7416248
vn -0.3232929 -0.3355513 -0.7667184
vn -0.3565889 -0.6614588 -0.7269635
vn 0.6156318 1.144639 -0.5537263
vn 0.3499605 0.688113 -0.7240509
vn -0.3380792 -0.6647516 -0.7293667
vn 0.5962866 1.172454 -0.5513222
vn -0.3232929 -0.3355513 -0.7667184
vn -0.3565889 -0.6614588 -0.7269635
vn -0.6464415 -1.149454 -0.5405077
vn -0.5962862 -1.172453 -0.5513226
vn -0.3380792 -0.6647516 -0.7293667
vn -0.1234864 -0.5429325 -0.7667186
vn 0.02667824 0.7490022 -0.7416251
vn -0.01632939 -0.8345559 -0.7269638
vn 0.1704184 0.7492785 -0.7353166
vn -0.1234864 -0.5429325 -0.7667186
vn -0.01632939 -0.8345559 -0.7269638
vn -0.05003954 -1.472741 -0.5405075
vn 0.02862526 -1.462964 -0.5452437
vn 0.02908071 -0.7582123 -0.7400965
vn 0.1916092 -0.8424451 -0.7172573
vn 0.02908071 -0.7582123 -0.7400965
vn -0.1138307 0.5004779 -0.7718116
vn 0.1916092 -0.8424451 -0.7172573
vn -0.01580638 0.84179 -0.7256318
vn 0.3059112 1.344995 -0.5656865
vn 0.3059101 1.344995 -0.5656869
vn -0.3059112 1.344995 -0.5656865
vn 0.02709495 1.442974 -0.5537263
vn -0.01580638 0.84179 -0.7256318
vn 0.02709495 1.442974 -0.5537263
vn -0.04860444 1.4376 -0.5554799
vn -0.04860444 1.4376 -0.5554799
vn -0.3059112 1.344995 -0.5656865
vn 0.3427992 -0.674032 -0.7272817
vn 0.6250947 -1.159526 -0.5452436
vn 0.5962867 -1.172454 -0.5513222
vn 0.3427992 -0.674032 -0.7272817
vn 0.335493 -0.5889877 -0.7400965
vn 0.6250947 -1.159526 -0.5452436
vn 0.5016387 -0.5206596 -0.7172574
vn -0.2980123 0.3093122 -0.7718117
vn -0.3591418 0.6677496 -0.7256317
vn -0.3591418 0.6677496 -0.7256317
vn -0.800885 0.8312525 -0.5656867
vn -0.2980123 0.3093122 -0.7718117
vn -0.800885 0.8312525 -0.5656867
vn -0.3380792 0.6647513 -0.7293668
vn -0.6308218 1.12223 -0.5554801
vn -0.5962862 1.172453 -0.5513226
vn -0.3380792 0.6647513 -0.7293668
vn 0.5546605 -0.2574573 -0.7272817
vn 0.8921759 -0.5768222 -0.5717111
vn 0.9648117 -0.4478375 -0.5513223
vn 0.4639567 -0.5018703 -0.7276079
vn 0.4639567 -0.5018703 -0.7276079
vn -0.2116076 -1.385094 -0.5642886
vn 0.8921759 -0.5768222 -0.5717111
vn -0.5681902 0.1693713 -0.7280067
vn -0.9768509 0.324268 -0.5582015
vn -0.5470234 0.2539123 -0.7293669
vn -0.5681902 0.1693713 -0.7280067
vn -0.5681902 0.1693713 -0.7280067
vn -0.9648117 0.4478373 -0.5513224
vn -0.9768509 0.324268 -0.5582015
vn -0.5470234 0.2539123 -0.7293669
vn -1.214646 -0.9945107 0
vn -0.8228996 -1.618034 0
vn -1.037432 -1.34296 0
vn -0.8228996 -1.618034 0
vn -1.33148 -0.6180334 0
vn -1.33148 -0.6180334 0
vn 0.8228997 -1.618034 0
vn 1.037432 -1.34296 0
vn 0.8228997 -1.618034 0
vn 1.214646 -0.9945109 0
vn 1.33148 -0.618034 0
vn 1.33148 -0.618034 0
vn 0.8228996 1.618034 0
vn 0.8521583 1.586825 0
vn 0.8228996 1.618034 0
vn 0.9149205 1.513828 0
vn 1.290542 0.7752599 0
vn 1.349365 0.5330238 0
vn 1.319744 0.6674305 0
vn 1.383524 0.3059354 0
vn 1.132623 -1.175572 0
vn 1.383524 0.3059354 0
vn 1.349365 0.5330238 0
vn 1.132623 -1.175572 0
vn -1.383524 0.3059354 0
vn -1.319744 0.66743 0
vn -1.349365 0.5330234 0
vn -1.290542 0.7752594 0
vn -1.132624 -1.175571 0
vn -1.383524 0.3059354 0
vn -1.349365 0.5330234 0
vn -1.132624 -1.175571 0
vn -0.9149205 1.513828 0
vn -0.8521582 1.586825 0
vn -0.8228996 1.618034 0
vn -0.8228996 1.618034 0
vn -0.1173221 1.992965 0
vn -0.4326244 1.902113 0
vn -0.4326244 1.902113 0
vn -0.03651164 1.99932 0
vn 0.03651164 1.99932 0
vn 0.1173221 1.992965 0
vn 0.4326244 1.902113 0
vn 0.1173221 1.992965 0
vn 0.03651164 1.99932 0
vn 0.4326244 1.902113 0

vt 0.3686636 1
vt 0.3847926 1
vt 0.3686636 0
vt 0.3847926 0
vt 0.5356011 0
vt 0.464399 0
vt 0.5356011 1
vt 0.464399 1
vt 0.6152074 1
vt 0.6313364 1
vt 0.6152074 0
vt 0.6313364 0
vt 0.6083894 0.5048822
vt 0.6292003 0.4408329
vt 0.6009331 0.4994649
vt 0.6199837 0.4408329
vt 0.6009331 0.4994649
vt 0.6152074 0.4342588
vt 0.5932047 0.501976
vt 0.6199837 0.4408329
vt 0.6313364 0.4342588
vt 0.6292003 0.4408329
vt 0.6361128 0.4408329
vt 0.6313364 0.4342588
vt 0.6139817 0.5089452
vt 0.6083894 0.5048822
vt 0.5932047 0.510102
vt 0.600661 0.5155194
vt 0.6009331 0.4994649
vt 0.6073214 0.5122324
vt 0.6062534 0.5195824
vt 0.6139817 0.5089452
vt 0.5483135 0.5616782
vt 0.5461774 0.5551041
vt 0.5932047 0.501976
vt 0.5932047 0.510102
vt 0.6009331 0.4994649
vt 0.5433294 0.5463386
vt 0.5356011 0.5438275
vt 0.5433294 0.5463386
vt 0.4663273 0.5591671
vt 0.4566706 0.5463386
vt 0.4538225 0.5551041
vt 0.4691754 0.5504016
vt 0.464399 0.5438275
vt 0.4566706 0.5463386
vt 0.4691754 0.5504016
vt 0.5356011 0.5438275
vt 0.5308247 0.5504016
vt 0.5433294 0.5463386
vt 0.5461774 0.5551041
vt 0.5308247 0.5504016
vt 0.5336727 0.5591671
vt 0.5433294 0.5463386
vt 0.4538225 0.5551041
vt 0.4590068 0.5604227
vt 0.4663273 0.5591671
vt 0.5409932 0.5604227
vt 0.4516865 0.5616782
vt 0.4641912 0.5657412
vt 0.5336727 0.5591671
vt 0.5358088 0.5657412
vt 0.5358088 0.5657412
vt 0.5483135 0.5616782
vt 0.3916106 0.5048822
vt 0.3926786 0.5122324
vt 0.3993389 0.5155194
vt 0.3993389 0.5155194
vt 0.3990669 0.4994649
vt 0.3916106 0.5048822
vt 0.4067953 0.510102
vt 0.4067953 0.501976
vt 0.3860182 0.5089453
vt 0.4538225 0.5551041
vt 0.4566706 0.5463386
vt 0.3937466 0.5195825
vt 0.464399 0.5438275
vt 0.4538225 0.5551041
vt 0.4516865 0.5616782
vt 0.3916106 0.5048822
vt 0.3638872 0.4408329
vt 0.3860182 0.5089453
vt 0.3707996 0.4408329
vt 0.3707996 0.4408329
vt 0.3916106 0.5048822
vt 0.3800163 0.4408329
vt 0.3990669 0.4994649
vt 0.4067953 0.501976
vt 0.3847926 0.4342588
vt 0.3707996 0.4408329
vt 0.3686636 0.4342588
vt 0.3638872 0.4408329
vt 0.3847926 0.4342588
vt 0.3800163 0.4408329
vt 0.3916106 0.5048822
vt 0.3638872 0.4408329
vt 0.3860182 0.5089452
vt 0.3707996 0.4408329
vt 0.3686636 0.4342588
vt 0.3800163 0.4408329
vt 0.3990669 0.4994649
vt 0.3800163 0.4408329
vt 0.4067953 0.501976
vt 0.3847926 0.4342588
vt 0.3990669 0.4994649
vt 0.3707996 0.4408329
vt 0.3686636 0.4342588
vt 0.3860182 0.5089452
vt 0.3926786 0.5122324
vt 0.3916106 0.5048822
vt 0.3993389 0.5155194
vt 0.3990669 0.4994649
vt 0.4067953 0.510102
vt 0.3937466 0.5195824
vt 0.4538226 0.5551041
vt 0.4566706 0.5463386
vt 0.4516865 0.5616782
vt 0.3990669 0.4994649
vt 0.4067953 0.510102
vt 0.4067953 0.501976
vt 0.464399 0.5438275
vt 0.4566706 0.5463386
vt 0.4566706 0.5463386
vt 0.4663273 0.5591671
vt 0.4691754 0.5504016
vt 0.4538226 0.5551041
vt 0.4566706 0.5463386
vt 0.4691754 0.5504016
vt 0.464399 0.5438275
vt 0.5356011 0.5438275
vt 0.5308247 0.5504016
vt 0.5433294 0.5463386
vt 0.5308247 0.5504016
vt 0.5461775 0.5551041
vt 0.5433294 0.5463386
vt 0.5336727 0.5591671
vt 0.4590069 0.5604227
vt 0.4516865 0.5616782
vt 0.5409932 0.5604227
vt 0.4641912 0.5657412
vt 0.5336727 0.5591671
vt 0.4641912 0.5657412
vt 0.5358088 0.5657412
vt 0.5358088 0.5657412
vt 0.5483136 0.5616782
vt 0.5433294 0.5463386
vt 0.5932047 0.501976
vt 0.5356011 0.5438275
vt 0.5433294 0.5463386
vt 0.5932047 0.510102
vt 0.5932047 0.501976
vt 0.6009331 0.4994649
vt 0.6083894 0.5048822
vt 0.6006611 0.5155194
vt 0.6006611 0.5155194
vt 0.6073214 0.5122324
vt 0.6083894 0.5048822
vt 0.6139817 0.5089453
vt 0.5461775 0.5551041
vt 0.6062534 0.5195825
vt 0.5483136 0.5616782
vt 0.5461775 0.5551041
vt 0.6009331 0.4994649
vt 0.6152074 0.4342588
vt 0.5932047 0.501976
vt 0.6199837 0.4408329
vt 0.6199837 0.4408329
vt 0.6313364 0.4342588
vt 0.6152074 0.4342588
vt 0.6292003 0.4408329
vt 0.6361128 0.4408329
vt 0.6083894 0.5048822
vt 0.6292003 0.4408329
vt 0.6292003 0.4408329
vt 0.6139817 0.5089453
vt 0.6361128 0.4408329
vt 0.6083894 0.5048822
vt 0 0.501976
vt 0 0.5438275
vt 1 0.501976
vt 1 0.5438275
vt 0 0.4342588
vt 1 0.4342588
vt 1 0.5438275
vt 1 0.501976
vt 0 0.5438275
vt 0 0.501976
vt 1 0.4342588
vt 0 0.4342588
vt 1 0.5616782
vt 1 0.5195824
vt 0 0.5616782
vt 0 0.5195824
vt 1 0.5089452
vt 1 0.4408329
vt 0 0.5089452
vt 0 0.4408329
vt 1 0.4342588
vt 0 0.4408329
vt 1 0.4408329
vt 0 0.4342588
vt 0 0.4408329
vt 0 0.5089453
vt 1 0.4408329
vt 1 0.5089453
vt 1 0.4342588
vt 0 0.4408329
vt 1 0.4408329
vt 0 0.4342588
vt 0 0.5195825
vt 1 0.5195825
vt 0 0.5616782
vt 1 0.5616782
vt 0.5358088 0
vt 0.5483136 1
vt 0.5483136 0
vt 0.5358088 1
vt 0.4641912 0
vt 0.4641912 1
vt 0.4516865 0
vt 0.4641912 1
vt 0.4641912 0
vt 0.4516865 1

g pb_Mesh334086
usemtl DGreen
f 3/3/3 2/2/2 1/1/1
f 3/3/3 4/4/4 2/2/2
f 7/7/7 6/6/6 5/5/5
f 7/7/7 8/8/8 6/6/6
f 11/11/11 10/10/10 9/9/9
f 11/11/11 12/12/12 10/10/10
f 15/15/15 14/14/14 13/13/13
f 15/15/15 16/16/16 14/14/14
f 19/19/19 18/18/18 17/17/17
f 18/18/18 20/20/20 17/17/17
f 18/18/18 21/21/21 20/20/20
f 21/21/21 22/22/22 20/20/20
f 14/14/14 24/24/24 23/23/23
f 23/23/23 25/25/25 14/14/14
f 25/25/25 13/13/13 14/14/14
f 28/28/28 27/27/27 26/26/26
f 27/27/27 29/29/29 26/26/26
f 26/26/26 30/30/30 28/28/28
f 28/28/28 30/30/30 31/31/31
f 31/31/31 30/30/30 32/32/32
f 31/31/31 33/33/33 28/28/28
f 33/33/33 34/34/34 28/28/28
f 32/32/32 30/30/30 26/26/26
f 37/37/37 36/36/36 35/35/35
f 39/39/39 35/35/35 38/38/38
f 35/35/35 36/36/36 38/38/38
f 40/40/40 28/28/28 34/34/34
f 40/40/40 27/27/27 28/28/28
f 43/43/43 42/42/42 41/41/41
f 42/42/42 44/44/44 41/41/41
f 47/47/47 46/46/46 45/45/45
f 45/45/45 48/48/48 47/47/47
f 48/48/48 49/49/49 47/47/47
f 50/50/50 49/49/49 48/48/48
f 53/53/53 52/52/52 51/51/51
f 52/52/52 54/54/54 51/51/51
f 44/44/44 53/53/53 41/41/41
f 44/44/44 52/52/52 53/53/53
f 57/57/57 56/56/56 55/55/55
f 51/51/51 58/58/58 53/53/53
f 55/55/55 56/56/56 59/59/59
f 60/60/60 56/56/56 57/57/57
f 62/62/62 60/60/60 61/61/61
f 60/60/60 57/57/57 61/61/61
f 53/53/53 58/58/58 63/63/63
f 59/59/59 56/56/56 60/60/60
f 63/63/63 58/58/58 64/64/64
f 64/64/64 58/58/58 51/51/51
f 67/67/67 66/66/66 65/65/65
f 70/70/70 69/69/69 68/68/68
f 69/69/69 71/71/71 68/68/68
f 71/71/71 69/69/69 72/72/72
f 65/65/65 66/66/66 73/73/73
f 71/71/71 74/74/74 68/68/68
f 71/71/71 75/75/75 74/74/74
f 73/73/73 66/66/66 76/76/76
f 76/76/76 66/66/66 67/67/67
f 72/72/72 77/77/77 71/71/71
f 77/77/77 75/75/75 71/71/71
f 79/79/79 76/76/76 78/78/78
f 76/76/76 67/67/67 78/78/78
f 82/82/82 81/81/81 80/80/80
f 81/81/81 83/83/83 80/80/80
f 86/86/86 85/85/85 84/84/84
f 86/86/86 87/87/87 85/85/85
f 89/89/89 88/88/88 86/86/86
f 88/88/88 87/87/87 86/86/86
f 92/92/92 91/91/91 90/90/90
f 91/91/91 93/93/93 90/90/90
f 93/93/93 94/94/94 90/90/90
f 97/97/97 96/96/96 95/95/95
f 96/96/96 98/98/98 95/95/95
f 99/99/99 98/98/98 96/96/96
f 100/100/100 95/95/95 98/98/98
f 100/100/100 101/101/101 95/95/95
f 104/104/104 103/103/103 102/102/102
f 103/103/103 105/105/105 102/102/102
f 107/107/107 104/104/104 106/106/106
f 104/104/104 102/102/102 106/106/106
f 110/110/110 109/109/109 108/108/108
f 111/111/111 109/109/109 110/110/110
f 113/113/113 111/111/111 112/112/112
f 111/111/111 110/110/110 112/112/112
f 108/108/108 109/109/109 114/114/114
f 114/114/114 109/109/109 111/111/111
f 113/113/113 115/115/115 111/111/111
f 113/113/113 116/116/116 115/115/115
f 117/117/117 114/114/114 115/115/115
f 114/114/114 111/111/111 115/115/115
f 120/120/120 119/119/119 118/118/118
f 120/120/120 121/121/121 119/119/119
f 121/121/121 122/122/122 119/119/119
f 125/125/125 124/124/124 123/123/123
f 124/124/124 126/126/126 123/123/123
f 129/129/129 128/128/128 127/127/127
f 129/129/129 130/130/130 128/128/128
f 130/130/130 131/131/131 128/128/128
f 130/130/130 132/132/132 131/131/131
f 135/135/135 134/134/134 133/133/133
f 134/134/134 136/136/136 133/133/133
f 125/125/125 136/136/136 124/124/124
f 125/125/125 133/133/133 136/136/136
f 124/124/124 137/137/137 126/126/126
f 126/126/126 137/137/137 138/138/138
f 134/134/134 139/139/139 136/136/136
f 140/140/140 137/137/137 124/124/124
f 143/143/143 142/142/142 141/141/141
f 140/140/140 124/124/124 136/136/136
f 136/136/136 139/139/139 144/144/144
f 138/138/138 137/137/137 140/140/140
f 144/144/144 139/139/139 145/145/145
f 145/145/145 139/139/139 134/134/134
f 148/148/148 147/147/147 146/146/146
f 151/151/151 150/150/150 149/149/149
f 151/151/151 152/152/152 150/150/150
f 152/152/152 153/153/153 150/150/150
f 153/153/153 154/154/154 150/150/150
f 157/157/157 156/156/156 155/155/155
f 158/158/158 156/156/156 157/157/157
f 149/149/149 154/154/154 159/159/159
f 149/149/149 150/150/150 154/154/154
f 160/160/160 156/156/156 158/158/158
f 155/155/155 156/156/156 160/160/160
f 160/160/160 161/161/161 155/155/155
f 161/161/161 162/162/162 155/155/155
f 165/165/165 164/164/164 163/163/163
f 164/164/164 166/166/166 163/163/163
f 169/169/169 168/168/168 167/167/167
f 168/168/168 170/170/170 167/167/167
f 171/171/171 170/170/170 168/168/168
f 163/163/163 173/173/173 172/172/172
f 163/163/163 166/166/166 173/173/173
f 176/176/176 175/175/175 174/174/174
f 175/175/175 177/177/177 174/174/174
f 180/180/180 179/179/179 178/178/178
f 180/180/180 181/181/181 179/179/179
f 183/183/183 178/178/178 182/182/182
f 183/183/183 180/180/180 178/178/178
f 186/186/186 185/185/185 184/184/184
f 186/186/186 187/187/187 185/185/185
f 187/187/187 188/188/188 185/185/185
f 187/187/187 189/189/189 188/188/188
f 192/192/192 191/191/191 190/190/190
f 192/192/192 193/193/193 191/191/191
f 196/196/196 195/195/195 194/194/194
f 196/196/196 197/197/197 195/195/195
f 200/200/200 199/199/199 198/198/198
f 199/199/199 201/201/201 198/198/198
f 191/191/191 193/193/193 194/194/194
f 193/193/193 196/196/196 194/194/194
f 204/204/204 203/203/203 202/202/202
f 204/204/204 205/205/205 203/203/203
f 208/208/208 207/207/207 206/206/206
f 207/207/207 209/209/209 206/206/206
f 203/203/203 205/205/205 210/210/210
f 205/205/205 211/211/211 210/210/210
f 211/211/211 212/212/212 210/210/210
f 211/211/211 213/213/213 212/212/212
f 216/216/216 215/215/215 214/214/214
f 215/215/215 217/217/217 214/214/214
f 217/217/217 218/218/218 214/214/214
f 217/217/217 219/219/219 218/218/218
f 222/222/222 221/221/221 220/220/220
f 221/221/221 223/223/223 220/220/220

